<svg width="20" height="21" viewBox="0 0 20 21" fill="none" xmlns="http://www.w3.org/2000/svg">
<path d="M11.25 19.0625H6.75C2.6775 19.0625 0.9375 17.3225 0.9375 13.25V8.75C0.9375 4.6775 2.6775 2.9375 6.75 2.9375H11.25C15.3225 2.9375 17.0625 4.6775 17.0625 8.75V13.25C17.0625 17.3225 15.3225 19.0625 11.25 19.0625ZM6.75 4.0625C3.2925 4.0625 2.0625 5.2925 2.0625 8.75V13.25C2.0625 16.7075 3.2925 17.9375 6.75 17.9375H11.25C14.7075 17.9375 15.9375 16.7075 15.9375 13.25V8.75C15.9375 5.2925 14.7075 4.0625 11.25 4.0625H6.75Z" fill="#7A7A7A"/>
<path d="M6.51 13.4975C6.195 13.4975 5.9025 13.4225 5.6475 13.28C5.025 12.9275 4.6875 12.23 4.6875 11.315V3.83C4.6875 3.5225 4.9425 3.2675 5.25 3.2675C5.5575 3.2675 5.8125 3.5225 5.8125 3.83V11.315C5.8125 11.8025 5.955 12.1625 6.2025 12.2975C6.465 12.4475 6.87 12.3725 7.3125 12.11L8.3025 11.5175C8.7075 11.2775 9.285 11.2775 9.69 11.5175L10.68 12.11C11.13 12.38 11.535 12.4475 11.79 12.2975C12.0375 12.155 12.18 11.795 12.18 11.315V3.83C12.18 3.5225 12.435 3.2675 12.7425 3.2675C13.05 3.2675 13.305 3.5225 13.305 3.83V11.315C13.305 12.23 12.9675 12.9275 12.345 13.28C11.7225 13.6325 10.905 13.5575 10.1025 13.0775L9.1125 12.485C9.0675 12.455 8.925 12.455 8.88 12.485L7.89 13.0775C7.425 13.355 6.945 13.4975 6.51 13.4975Z" fill="#7A7A7A"/>
<path d="M11.25 19.0625H6.75C2.6775 19.0625 0.9375 17.3225 0.9375 13.25V8.75C0.9375 4.6775 2.6775 2.9375 6.75 2.9375H11.25C15.3225 2.9375 17.0625 4.6775 17.0625 8.75V13.25C17.0625 17.3225 15.3225 19.0625 11.25 19.0625ZM6.75 4.0625C3.2925 4.0625 2.0625 5.2925 2.0625 8.75V13.25C2.0625 16.7075 3.2925 17.9375 6.75 17.9375H11.25C14.7075 17.9375 15.9375 16.7075 15.9375 13.25V8.75C15.9375 5.2925 14.7075 4.0625 11.25 4.0625H6.75Z" fill="#7A7A7A"/>
<path d="M6.51 13.4975C6.195 13.4975 5.9025 13.4225 5.6475 13.28C5.025 12.9275 4.6875 12.23 4.6875 11.315V3.83C4.6875 3.5225 4.9425 3.2675 5.25 3.2675C5.5575 3.2675 5.8125 3.5225 5.8125 3.83V11.315C5.8125 11.8025 5.955 12.1625 6.2025 12.2975C6.465 12.4475 6.87 12.3725 7.3125 12.11L8.3025 11.5175C8.7075 11.2775 9.285 11.2775 9.69 11.5175L10.68 12.11C11.13 12.38 11.535 12.4475 11.79 12.2975C12.0375 12.155 12.18 11.795 12.18 11.315V3.83C12.18 3.5225 12.435 3.2675 12.7425 3.2675C13.05 3.2675 13.305 3.5225 13.305 3.83V11.315C13.305 12.23 12.9675 12.9275 12.345 13.28C11.7225 13.6325 10.905 13.5575 10.1025 13.0775L9.1125 12.485C9.0675 12.455 8.925 12.455 8.88 12.485L7.89 13.0775C7.425 13.355 6.945 13.4975 6.51 13.4975Z" fill="#7A7A7A"/>
</svg>
