<svg width="20" height="21" viewBox="0 0 20 21" fill="none" xmlns="http://www.w3.org/2000/svg">
<path d="M6.86971 9.715C6.84721 9.715 6.83221 9.715 6.80971 9.715C6.77221 9.7075 6.71971 9.7075 6.67471 9.715C4.49971 9.6475 2.85721 7.9375 2.85721 5.83C2.85721 3.685 4.60471 1.9375 6.74971 1.9375C8.89471 1.9375 10.6422 3.685 10.6422 5.83C10.6347 7.9375 8.98471 9.6475 6.89221 9.715C6.88471 9.715 6.87721 9.715 6.86971 9.715ZM6.74971 3.0625C5.22721 3.0625 3.98221 4.3075 3.98221 5.83C3.98221 7.33 5.15221 8.5375 6.64471 8.59C6.68971 8.5825 6.78721 8.5825 6.88471 8.59C8.35471 8.5225 9.50971 7.315 9.51721 5.83C9.51721 4.3075 8.27221 3.0625 6.74971 3.0625Z" fill="#00A9A6"/>
<path d="M12.4047 9.8125C12.3822 9.8125 12.3597 9.8125 12.3372 9.805C12.0297 9.835 11.7147 9.6175 11.6847 9.31C11.6547 9.0025 11.8422 8.725 12.1497 8.6875C12.2397 8.68 12.3372 8.68 12.4197 8.68C13.5147 8.62 14.3697 7.72 14.3697 6.6175C14.3697 5.4775 13.4472 4.555 12.3072 4.555C11.9997 4.5625 11.7447 4.3075 11.7447 4C11.7447 3.6925 11.9997 3.4375 12.3072 3.4375C14.0622 3.4375 15.4947 4.87 15.4947 6.625C15.4947 8.35 14.1447 9.745 12.4272 9.8125C12.4197 9.8125 12.4122 9.8125 12.4047 9.8125Z" fill="#00A9A6"/>
<path d="M6.87721 17.9125C5.40721 17.9125 3.92971 17.5375 2.81221 16.7875C1.76971 16.0975 1.19971 15.1525 1.19971 14.125C1.19971 13.0975 1.76971 12.145 2.81221 11.4475C5.06221 9.955 8.70721 9.955 10.9422 11.4475C11.9772 12.1375 12.5547 13.0825 12.5547 14.11C12.5547 15.1375 11.9847 16.09 10.9422 16.7875C9.81721 17.5375 8.34721 17.9125 6.87721 17.9125ZM3.43471 12.3925C2.71471 12.8725 2.32471 13.4875 2.32471 14.1325C2.32471 14.77 2.72221 15.385 3.43471 15.8575C5.30221 17.11 8.45221 17.11 10.3197 15.8575C11.0397 15.3775 11.4297 14.7625 11.4297 14.1175C11.4297 13.48 11.0322 12.865 10.3197 12.3925C8.45221 11.1475 5.30221 11.1475 3.43471 12.3925Z" fill="#00A9A6"/>
<path d="M13.7547 16.5625C13.4922 16.5625 13.2597 16.3825 13.2072 16.1125C13.1472 15.805 13.3422 15.5125 13.6422 15.445C14.1147 15.3475 14.5497 15.16 14.8872 14.8975C15.3147 14.575 15.5472 14.17 15.5472 13.7425C15.5472 13.315 15.3147 12.91 14.8947 12.595C14.5647 12.34 14.1522 12.16 13.6647 12.0475C13.3647 11.98 13.1697 11.68 13.2372 11.3725C13.3047 11.0725 13.6047 10.8775 13.9122 10.945C14.5572 11.0875 15.1197 11.3425 15.5772 11.695C16.2747 12.22 16.6722 12.9625 16.6722 13.7425C16.6722 14.5225 16.2672 15.265 15.5697 15.7975C15.1047 16.1575 14.5197 16.42 13.8747 16.5475C13.8297 16.5625 13.7922 16.5625 13.7547 16.5625Z" fill="#00A9A6"/>
</svg>
