<svg width="16" height="16" viewBox="0 0 16 16" fill="none" xmlns="http://www.w3.org/2000/svg">
<path d="M2.33333 2C1.78105 2 1.33333 2.44772 1.33333 3C1.33333 3.55228 1.78105 4 2.33333 4C2.88562 4 3.33333 3.55228 3.33333 3C3.33333 2.44772 2.88562 2 2.33333 2ZM2.33333 6.66667C1.78105 6.66667 1.33333 7.11438 1.33333 7.66667C1.33333 8.21895 1.78105 8.66667 2.33333 8.66667C2.88562 8.66667 3.33333 8.21895 3.33333 7.66667C3.33333 7.11438 2.88562 6.66667 2.33333 6.66667ZM1.33333 12.3333C1.33333 11.781 1.78105 11.3333 2.33333 11.3333C2.88562 11.3333 3.33333 11.781 3.33333 12.3333C3.33333 12.8856 2.88562 13.3333 2.33333 13.3333C1.78105 13.3333 1.33333 12.8856 1.33333 12.3333ZM5.66667 2C5.11438 2 4.66667 2.44772 4.66667 3C4.66667 3.55228 5.11438 4 5.66667 4H13.6667C14.219 4 14.6667 3.55228 14.6667 3C14.6667 2.44772 14.219 2 13.6667 2H5.66667ZM4.66667 7.66667C4.66667 7.11438 5.11438 6.66667 5.66667 6.66667H13.6667C14.219 6.66667 14.6667 7.11438 14.6667 7.66667C14.6667 8.21895 14.219 8.66667 13.6667 8.66667H5.66667C5.11438 8.66667 4.66667 8.21895 4.66667 7.66667ZM5.66667 11.3333C5.11438 11.3333 4.66667 11.781 4.66667 12.3333C4.66667 12.8856 5.11438 13.3333 5.66667 13.3333H13.6667C14.219 13.3333 14.6667 12.8856 14.6667 12.3333C14.6667 11.781 14.219 11.3333 13.6667 11.3333H5.66667Z" fill="#7A7A7A"/>
</svg>
