<svg width="20" height="21" viewBox="0 0 20 21" fill="none" xmlns="http://www.w3.org/2000/svg">
<g clip-path="url(#clip0_237_629)">
<path d="M10 14.125C8.275 14.125 6.875 12.725 6.875 11C6.875 9.275 8.275 7.875 10 7.875C11.725 7.875 13.125 9.275 13.125 11C13.125 12.725 11.725 14.125 10 14.125ZM10 9.125C8.96667 9.125 8.125 9.96667 8.125 11C8.125 12.0333 8.96667 12.875 10 12.875C11.0333 12.875 11.875 12.0333 11.875 11C11.875 9.96667 11.0333 9.125 10 9.125Z" fill="#7A7A7A"/>
<path d="M12.675 19.4917C12.5 19.4917 12.325 19.4667 12.15 19.425C11.6333 19.2833 11.2 18.9583 10.925 18.5L10.825 18.3333C10.3333 17.4833 9.65833 17.4833 9.16667 18.3333L9.075 18.4917C8.8 18.9583 8.36667 19.2917 7.85 19.425C7.325 19.5667 6.78334 19.4917 6.325 19.2167L4.89167 18.3917C4.38333 18.1 4.01667 17.625 3.85833 17.05C3.70833 16.475 3.78333 15.8833 4.075 15.375C4.31667 14.95 4.38333 14.5667 4.24167 14.325C4.1 14.0833 3.74167 13.9417 3.25 13.9417C2.03333 13.9417 1.04167 12.95 1.04167 11.7333V10.2667C1.04167 9.05001 2.03333 8.05835 3.25 8.05835C3.74167 8.05835 4.1 7.91668 4.24167 7.67502C4.38333 7.43335 4.325 7.05002 4.075 6.62502C3.78333 6.11668 3.70833 5.51668 3.85833 4.95001C4.00833 4.37501 4.375 3.90001 4.89167 3.60835L6.33333 2.78335C7.275 2.22501 8.51667 2.55001 9.08333 3.50835L9.18334 3.67501C9.675 4.52501 10.35 4.52501 10.8417 3.67501L10.9333 3.51668C11.5 2.55001 12.7417 2.22501 13.6917 2.79168L15.125 3.61668C15.6333 3.90835 16 4.38335 16.1583 4.95835C16.3083 5.53335 16.2333 6.12502 15.9417 6.63335C15.7 7.05835 15.6333 7.44168 15.775 7.68335C15.9167 7.92502 16.275 8.06668 16.7667 8.06668C17.9833 8.06668 18.975 9.05835 18.975 10.275V11.7417C18.975 12.9583 17.9833 13.95 16.7667 13.95C16.275 13.95 15.9167 14.0917 15.775 14.3333C15.6333 14.575 15.6917 14.9583 15.9417 15.3833C16.2333 15.8917 16.3167 16.4917 16.1583 17.0583C16.0083 17.6333 15.6417 18.1083 15.125 18.4L13.6833 19.225C13.3667 19.4 13.025 19.4917 12.675 19.4917ZM10 16.4083C10.7417 16.4083 11.4333 16.875 11.9083 17.7L12 17.8583C12.1 18.0333 12.2667 18.1583 12.4667 18.2083C12.6667 18.2583 12.8667 18.2333 13.0333 18.1333L14.475 17.3C14.6917 17.175 14.8583 16.9667 14.925 16.7167C14.9917 16.4667 14.9583 16.2083 14.8333 15.9917C14.3583 15.175 14.3 14.3333 14.6667 13.6917C15.0333 13.05 15.7917 12.6833 16.7417 12.6833C17.275 12.6833 17.7 12.2583 17.7 11.725V10.2583C17.7 9.73335 17.275 9.30001 16.7417 9.30001C15.7917 9.30001 15.0333 8.93335 14.6667 8.29168C14.3 7.65002 14.3583 6.80835 14.8333 5.99168C14.9583 5.77501 14.9917 5.51668 14.925 5.26668C14.8583 5.01668 14.7 4.81668 14.4833 4.68335L13.0417 3.85835C12.6833 3.64168 12.2083 3.76668 11.9917 4.13335L11.9 4.29168C11.425 5.11668 10.7333 5.58335 9.99167 5.58335C9.25 5.58335 8.55833 5.11668 8.08333 4.29168L7.99167 4.12501C7.78334 3.77501 7.31667 3.65001 6.95834 3.85835L5.51667 4.69168C5.3 4.81668 5.13333 5.02502 5.06667 5.27502C5 5.52502 5.03333 5.78335 5.15833 6.00002C5.63333 6.81668 5.69167 7.65835 5.325 8.30002C4.95833 8.94168 4.2 9.30835 3.25 9.30835C2.71667 9.30835 2.29167 9.73335 2.29167 10.2667V11.7333C2.29167 12.2583 2.71667 12.6917 3.25 12.6917C4.2 12.6917 4.95833 13.0583 5.325 13.7C5.69167 14.3417 5.63333 15.1833 5.15833 16C5.03333 16.2167 5 16.475 5.06667 16.725C5.13333 16.975 5.29167 17.175 5.50833 17.3083L6.95 18.1333C7.125 18.2417 7.33333 18.2667 7.525 18.2167C7.725 18.1667 7.89167 18.0333 8 17.8583L8.09167 17.7C8.56667 16.8833 9.25834 16.4083 10 16.4083Z" fill="#7A7A7A"/>
</g>
<defs>
<clipPath id="clip0_237_629">
<rect width="20" height="20" fill="white" transform="matrix(1 0 0 -1 0 20.94)"/>
</clipPath>
</defs>
</svg>
