<svg width="182" height="38" viewBox="0 0 182 38" fill="none" xmlns="http://www.w3.org/2000/svg">
<g clip-path="url(#clip0_618_692)">
<mask id="mask0_618_692" style="mask-type:luminance" maskUnits="userSpaceOnUse" x="0" y="0" width="38" height="38">
<path d="M38 0.844444H0V37.1556H38V0.844444Z" fill="white"/>
</mask>
<g mask="url(#mask0_618_692)">
<path d="M34.9706 24.2915C30.729 31.6537 20.2621 36.5159 18.7593 37.1848C18.7026 37.2102 18.641 37.2234 18.5789 37.2234C18.5166 37.2234 18.4552 37.2102 18.3983 37.1848C16.8964 36.5159 6.42952 31.6537 2.18701 24.2915C-0.444383 19.7226 0.888837 13.855 5.34077 11.0348C11.8953 6.88236 17.5647 14.0167 18.5785 15.5155L18.171 15.7678L18.0789 15.8258C16.0954 17.0845 14.6994 19.3444 14.6994 19.3444C14.6994 19.3444 14.6032 19.4816 14.666 19.5698C14.6921 19.6066 14.7475 19.6197 14.8452 19.6409C15.0987 19.698 16.4441 20.0492 17.3569 20.2943C17.889 20.434 19.0495 20.8243 19.0593 20.8276L22.4436 22.2398L22.9424 22.4464L23.6358 22.7634C32.2798 26.9108 35.9845 19.7487 36.1287 19.4604L36.1377 19.4433C36.2016 19.3306 36.2534 19.2115 36.2925 19.0879C36.2925 19.0741 36.299 19.0594 36.3022 19.0455C36.3046 19.0323 36.3063 19.0188 36.3071 19.0055C36.3592 20.8576 35.8965 22.6877 34.9706 24.2915Z" fill="#00B0AD"/>
<path d="M34.9706 24.2915C30.729 31.6537 20.2621 36.5159 18.7593 37.1848C18.7026 37.2102 18.641 37.2234 18.5789 37.2234C18.5166 37.2234 18.4552 37.2102 18.3983 37.1848C16.8964 36.5159 6.42952 31.6537 2.18701 24.2915C-0.444383 19.7226 0.888837 13.855 5.34077 11.0348C11.8953 6.88236 17.5647 14.0167 18.5785 15.5155L18.171 15.7678L18.0789 15.8258C16.0954 17.0845 14.6994 19.3444 14.6994 19.3444C14.6994 19.3444 14.6032 19.4816 14.666 19.5698C14.6921 19.6066 14.7475 19.6197 14.8452 19.6409C15.0987 19.698 16.4441 20.0492 17.3569 20.2943C17.889 20.434 19.0495 20.8243 19.0593 20.8276L22.4436 22.2398L22.9424 22.4464L23.6358 22.7634C32.2798 26.9108 35.9845 19.7487 36.1287 19.4604L36.1377 19.4433C36.2016 19.3306 36.2534 19.2115 36.2925 19.0879C36.2925 19.0741 36.299 19.0594 36.3022 19.0455C36.3046 19.0323 36.3063 19.0188 36.3071 19.0055C36.3592 20.8576 35.8965 22.6877 34.9706 24.2915Z" fill="url(#paint0_linear_618_692)"/>
<path style="mix-blend-mode:overlay" d="M34.9706 24.2915C30.729 31.6537 20.2621 36.5159 18.7593 37.1848C18.7026 37.2102 18.641 37.2234 18.5789 37.2234C18.5166 37.2234 18.4552 37.2102 18.3983 37.1848C16.8964 36.5159 6.42952 31.6537 2.18701 24.2915C-0.444383 19.7226 0.888837 13.855 5.34077 11.0348C11.8953 6.88236 17.5647 14.0167 18.5785 15.5155L18.171 15.7678L18.0789 15.8258C16.0954 17.0845 14.6994 19.3444 14.6994 19.3444C14.6994 19.3444 14.6032 19.4816 14.666 19.5698C14.6921 19.6066 14.7475 19.6197 14.8452 19.6409C15.0987 19.698 16.4441 20.0492 17.3569 20.2943C17.889 20.434 19.0495 20.8243 19.0593 20.8276L22.4436 22.2398L22.9424 22.4464L23.6358 22.7634C32.2798 26.9108 35.9845 19.7487 36.1287 19.4604L36.1377 19.4433C36.2016 19.3306 36.2534 19.2115 36.2925 19.0879C36.2925 19.0741 36.299 19.0594 36.3022 19.0455C36.3046 19.0323 36.3063 19.0188 36.3071 19.0055C36.3592 20.8576 35.8965 22.6877 34.9706 24.2915Z" fill="url(#paint1_radial_618_692)"/>
<path d="M37.1545 18.5701V18.6625C37.1545 18.6625 37.1545 18.6697 37.1545 18.6744V18.7015C37.1545 18.7134 37.1545 18.7261 37.1487 18.7381C37.1466 18.7516 37.1435 18.7648 37.1396 18.7779C37.1002 18.8955 37.0482 19.0089 36.9846 19.1164C36.9846 19.1164 33.4028 26.1284 24.8055 22.1939L24.1299 21.9002L23.6434 21.7075L20.3314 20.3896C19.7906 20.2022 19.2422 20.0387 18.6863 19.8991C17.7967 19.6761 16.4855 19.3488 16.239 19.2963C16.1432 19.2756 16.0899 19.2636 16.064 19.2294C16.0032 19.1498 16.0965 19.02 16.0965 19.02C16.0965 19.02 17.2952 17.2451 19.2286 16.0737L19.3185 16.0196C19.4502 15.94 19.586 15.8667 19.7242 15.7958C19.8758 15.7162 20.0324 15.6438 20.1915 15.5761C20.3137 15.523 20.4387 15.4736 20.5664 15.428C20.6804 15.3865 20.7971 15.3484 20.9145 15.3133C21.1419 15.2458 21.3734 15.1912 21.6076 15.1501C21.7742 15.1222 21.9408 15.0999 22.1074 15.0863C22.254 15.0744 22.4023 15.0681 22.5522 15.0681C22.5931 15.0681 22.6341 15.0705 22.6747 15.0752C24.9921 15.3484 28.5497 17.3598 28.5497 17.3598C28.5497 17.3598 29.0496 17.566 28.2057 18.2165C27.9574 18.4181 27.6633 18.5617 27.3469 18.6362C27.1451 18.6874 26.9325 18.6846 26.7322 18.6282C26.7322 18.6282 25.4369 18.2762 24.6214 18.0262C24.4131 17.9625 24.2366 17.9052 24.1216 17.8622C24.1053 17.8562 24.0876 17.8547 24.0705 17.8578C24.0534 17.861 24.0375 17.8687 24.0249 17.8801C24.0121 17.8915 24.003 17.9061 23.9986 17.9222C23.9942 17.9384 23.9947 17.9554 24 17.9713C24.0657 18.1791 24.2607 18.4156 24.6405 18.7006C25.6693 19.3626 26.8254 19.8227 28.0416 20.0544C29.7751 20.3927 32.015 20.337 34.3773 18.985C34.3848 18.981 34.3915 18.9746 34.4007 18.9699C34.8463 18.7206 35.5536 18.2859 35.9001 18.0709C36.0665 17.9651 36.2617 17.9084 36.4615 17.9075C36.5039 17.9077 36.5462 17.9107 36.5882 17.9163C36.7112 17.9258 36.8283 17.9711 36.9236 18.0461C37.0189 18.1212 37.0879 18.2224 37.1213 18.336C37.1213 18.3503 37.1295 18.3646 37.1338 18.3806L37.1412 18.4172C37.1496 18.4677 37.154 18.5189 37.1545 18.5701Z" fill="#33C0BD"/>
<path d="M37.1545 18.5701V18.6625C37.1545 18.6625 37.1545 18.6697 37.1545 18.6744V18.7015C37.1545 18.7134 37.1545 18.7261 37.1487 18.7381C37.1466 18.7516 37.1435 18.7648 37.1396 18.7779C37.1002 18.8955 37.0482 19.0089 36.9846 19.1164C36.9846 19.1164 33.4028 26.1284 24.8055 22.1939L24.1299 21.9002L23.6434 21.7075L20.3314 20.3896C19.7906 20.2022 19.2422 20.0387 18.6863 19.8991C17.7967 19.6761 16.4855 19.3488 16.239 19.2963C16.1432 19.2756 16.0899 19.2636 16.064 19.2294C16.0032 19.1498 16.0965 19.02 16.0965 19.02C16.0965 19.02 17.2952 17.2451 19.2286 16.0737L19.3185 16.0196C19.4502 15.94 19.586 15.8667 19.7242 15.7958C19.8758 15.7162 20.0324 15.6438 20.1915 15.5761C20.3137 15.523 20.4387 15.4736 20.5664 15.428C20.6804 15.3865 20.7971 15.3484 20.9145 15.3133C21.1419 15.2458 21.3734 15.1912 21.6076 15.1501C21.7742 15.1222 21.9408 15.0999 22.1074 15.0863C22.254 15.0744 22.4023 15.0681 22.5522 15.0681C22.5931 15.0681 22.6341 15.0705 22.6747 15.0752C24.9921 15.3484 28.5497 17.3598 28.5497 17.3598C28.5497 17.3598 29.0496 17.566 28.2057 18.2165C27.9574 18.4181 27.6633 18.5617 27.3469 18.6362C27.1451 18.6874 26.9325 18.6846 26.7322 18.6282C26.7322 18.6282 25.4369 18.2762 24.6214 18.0262C24.4131 17.9625 24.2366 17.9052 24.1216 17.8622C24.1053 17.8562 24.0876 17.8547 24.0705 17.8578C24.0534 17.861 24.0375 17.8687 24.0249 17.8801C24.0121 17.8915 24.003 17.9061 23.9986 17.9222C23.9942 17.9384 23.9947 17.9554 24 17.9713C24.0657 18.1791 24.2607 18.4156 24.6405 18.7006C25.6693 19.3626 26.8254 19.8227 28.0416 20.0544C29.7751 20.3927 32.015 20.337 34.3773 18.985C34.3848 18.981 34.3915 18.9746 34.4007 18.9699C34.8463 18.7206 35.5536 18.2859 35.9001 18.0709C36.0665 17.9651 36.2617 17.9084 36.4615 17.9075C36.5039 17.9077 36.5462 17.9107 36.5882 17.9163C36.7112 17.9258 36.8283 17.9711 36.9236 18.0461C37.0189 18.1212 37.0879 18.2224 37.1213 18.336C37.1213 18.3503 37.1295 18.3646 37.1338 18.3806L37.1412 18.4172C37.1496 18.4677 37.154 18.5189 37.1545 18.5701Z" fill="url(#paint2_linear_618_692)"/>
<path style="mix-blend-mode:overlay" d="M37.1545 18.5701V18.6625C37.1545 18.6625 37.1545 18.6697 37.1545 18.6744V18.7015C37.1545 18.7134 37.1545 18.7261 37.1487 18.7381C37.1466 18.7516 37.1435 18.7648 37.1396 18.7779C37.1002 18.8955 37.0482 19.0089 36.9846 19.1164C36.9846 19.1164 33.4028 26.1284 24.8055 22.1939L24.1299 21.9002L23.6434 21.7075L20.3314 20.3896C19.7906 20.2022 19.2422 20.0387 18.6863 19.8991C17.7967 19.6761 16.4855 19.3488 16.239 19.2963C16.1432 19.2756 16.0899 19.2636 16.064 19.2294C16.0032 19.1498 16.0965 19.02 16.0965 19.02C16.0965 19.02 17.2952 17.2451 19.2286 16.0737L19.3185 16.0196C19.4502 15.94 19.586 15.8667 19.7242 15.7958C19.8758 15.7162 20.0324 15.6438 20.1915 15.5761C20.3137 15.523 20.4387 15.4736 20.5664 15.428C20.6804 15.3865 20.7971 15.3484 20.9145 15.3133C21.1419 15.2458 21.3734 15.1912 21.6076 15.1501C21.7742 15.1222 21.9408 15.0999 22.1074 15.0863C22.254 15.0744 22.4023 15.0681 22.5522 15.0681C22.5931 15.0681 22.6341 15.0705 22.6747 15.0752C24.9921 15.3484 28.5497 17.3598 28.5497 17.3598C28.5497 17.3598 29.0496 17.566 28.2057 18.2165C27.9574 18.4181 27.6633 18.5617 27.3469 18.6362C27.1451 18.6874 26.9325 18.6846 26.7322 18.6282C26.7322 18.6282 25.4369 18.2762 24.6214 18.0262C24.4131 17.9625 24.2366 17.9052 24.1216 17.8622C24.1053 17.8562 24.0876 17.8547 24.0705 17.8578C24.0534 17.861 24.0375 17.8687 24.0249 17.8801C24.0121 17.8915 24.003 17.9061 23.9986 17.9222C23.9942 17.9384 23.9947 17.9554 24 17.9713C24.0657 18.1791 24.2607 18.4156 24.6405 18.7006C25.6693 19.3626 26.8254 19.8227 28.0416 20.0544C29.7751 20.3927 32.015 20.337 34.3773 18.985C34.3848 18.981 34.3915 18.9746 34.4007 18.9699C34.8463 18.7206 35.5536 18.2859 35.9001 18.0709C36.0665 17.9651 36.2617 17.9084 36.4615 17.9075C36.5039 17.9077 36.5462 17.9107 36.5882 17.9163C36.7112 17.9258 36.8283 17.9711 36.9236 18.0461C37.0189 18.1212 37.0879 18.2224 37.1213 18.336C37.1213 18.3503 37.1295 18.3646 37.1338 18.3806L37.1412 18.4172C37.1496 18.4677 37.154 18.5189 37.1545 18.5701Z" fill="url(#paint3_radial_618_692)"/>
<path d="M32.3296 17.4586C32.0795 17.7393 31.7757 17.9688 31.4356 18.1338C31.0956 18.2987 30.7258 18.396 30.3476 18.42C30.296 18.423 30.2448 18.4096 30.2016 18.3819C30.1582 18.3541 30.1251 18.3134 30.1071 18.2658V18.2616C30.0946 18.2295 30.0894 18.1952 30.0918 18.161C30.0941 18.1268 30.104 18.0935 30.1207 18.0633C30.1374 18.0333 30.1605 18.0071 30.1885 17.9867C30.2164 17.9662 30.2486 17.952 30.2826 17.945C30.9343 17.8084 31.5179 17.4537 31.9344 16.941C31.9544 16.9161 31.9793 16.8953 32.0076 16.88C32.0359 16.8647 32.0669 16.8552 32.099 16.8519C32.1311 16.8486 32.1636 16.8516 32.1944 16.8609C32.2254 16.8701 32.254 16.8853 32.2788 16.9057H32.2838C32.3246 16.9385 32.3581 16.979 32.3826 17.0248C32.4071 17.0707 32.4219 17.1209 32.4261 17.1725C32.4304 17.2241 32.4241 17.2762 32.4074 17.3253C32.3909 17.3744 32.3643 17.4198 32.3296 17.4586Z" fill="#33C0BD"/>
<path d="M34.7556 17.794C34.2674 18.3431 33.674 18.7917 33.0094 19.1141C32.3448 19.4364 31.6222 19.6262 30.883 19.6724C30.7823 19.6784 30.6823 19.6523 30.5978 19.598C30.5132 19.5436 30.4487 19.4639 30.4138 19.3705V19.3624C30.3899 19.2996 30.38 19.2326 30.3848 19.1657C30.3896 19.0989 30.409 19.0339 30.4416 18.9751C30.4742 18.9163 30.5193 18.8651 30.5738 18.8251C30.6283 18.7851 30.6909 18.7571 30.7574 18.743C32.0307 18.4772 33.1713 17.7848 33.9851 16.7834C34.0241 16.7345 34.0727 16.6938 34.1279 16.6638C34.1832 16.6336 34.244 16.6148 34.3067 16.6083C34.3695 16.6018 34.433 16.6078 34.4934 16.6258C34.5537 16.644 34.6098 16.6739 34.6583 16.7137L34.6674 16.7219C34.7456 16.786 34.81 16.8647 34.8569 16.9537C34.9038 17.0426 34.9321 17.1398 34.9403 17.2397C34.9486 17.3396 34.9364 17.4401 34.9048 17.5352C34.873 17.6304 34.8224 17.7184 34.7556 17.794Z" fill="#33C0BD"/>
<path d="M9.62726 7.68999C11.4928 7.68999 13.005 6.1992 13.005 4.36022C13.005 2.52124 11.4928 1.03046 9.62726 1.03046C7.76177 1.03046 6.24949 2.52124 6.24949 4.36022C6.24949 6.1992 7.76177 7.68999 9.62726 7.68999Z" fill="#33C0BD"/>
<path d="M9.62726 7.68999C11.4928 7.68999 13.005 6.1992 13.005 4.36022C13.005 2.52124 11.4928 1.03046 9.62726 1.03046C7.76177 1.03046 6.24949 2.52124 6.24949 4.36022C6.24949 6.1992 7.76177 7.68999 9.62726 7.68999Z" fill="url(#paint4_linear_618_692)"/>
<path style="mix-blend-mode:overlay" d="M9.62726 7.68999C11.4928 7.68999 13.005 6.1992 13.005 4.36022C13.005 2.52124 11.4928 1.03046 9.62726 1.03046C7.76177 1.03046 6.24949 2.52124 6.24949 4.36022C6.24949 6.1992 7.76177 7.68999 9.62726 7.68999Z" fill="url(#paint5_radial_618_692)"/>
<path d="M33.5537 14.2795V14.323C33.5541 14.325 33.5541 14.3271 33.5537 14.3291C33.5542 14.3335 33.5542 14.338 33.5537 14.3424V14.361L33.5486 14.3812C33.527 14.4402 33.4986 14.4969 33.4642 14.5505C33.4642 14.5505 31.6015 18.0574 27.1312 16.09L26.78 15.9424L26.5267 15.8461L24.805 15.1874C24.5235 15.0937 24.2384 15.0119 23.9496 14.942C23.4877 14.8301 22.8055 14.6671 22.678 14.6406C22.6282 14.6297 22.5994 14.6243 22.5868 14.6072C22.5555 14.5661 22.6037 14.5024 22.6037 14.5024C23.0382 13.9188 23.5909 13.4177 24.2317 13.0266L24.2781 12.9994C24.3465 12.9605 24.4175 12.9218 24.4892 12.8876C24.561 12.8534 24.6496 12.8099 24.7323 12.778C24.7957 12.7516 24.8607 12.7268 24.9266 12.7042C24.9924 12.6817 25.0465 12.6639 25.1081 12.6467C25.2263 12.6137 25.3468 12.5878 25.4687 12.5691C25.5553 12.5542 25.6427 12.5435 25.7305 12.5373C25.8064 12.531 25.8832 12.5279 25.9618 12.5279C25.9829 12.5267 26.0041 12.5267 26.0251 12.5279C27.23 12.6646 29.0793 13.6705 29.0793 13.6705C29.0793 13.6705 29.3411 13.7738 28.9003 14.1C28.7708 14.2005 28.618 14.2723 28.4536 14.3098C28.3488 14.3351 28.2383 14.3335 28.1344 14.3051C28.1344 14.3051 27.4589 14.1296 27.0367 14.0045C26.9287 13.9727 26.8375 13.9439 26.7767 13.9222C26.7681 13.9194 26.7589 13.9188 26.7501 13.9206C26.7413 13.9223 26.7332 13.9262 26.7267 13.9319C26.7201 13.9376 26.7154 13.9449 26.713 13.9529C26.7107 13.9609 26.7108 13.9693 26.7133 13.9773C26.7479 14.0806 26.8493 14.1987 27.0511 14.3416C27.5846 14.6735 28.1844 14.9047 28.8158 15.022C29.9475 15.2388 31.1265 15.0472 32.1089 14.4869L32.1182 14.4783C32.3496 14.3533 32.7177 14.1357 32.8976 14.0278C32.9842 13.9749 33.0858 13.9465 33.1898 13.9463C33.2115 13.9463 33.2333 13.9479 33.2548 13.9509C33.3187 13.9557 33.3795 13.9783 33.429 14.0158C33.4785 14.0533 33.5144 14.1038 33.5317 14.1606C33.5345 14.168 33.5368 14.1755 33.5385 14.1831C33.5385 14.1894 33.5385 14.1948 33.5385 14.201C33.5456 14.2268 33.5506 14.253 33.5537 14.2795Z" fill="#66D0CE"/>
<path d="M33.5537 14.2795V14.323C33.5541 14.325 33.5541 14.3271 33.5537 14.3291C33.5542 14.3335 33.5542 14.338 33.5537 14.3424V14.361L33.5486 14.3812C33.527 14.4402 33.4986 14.4969 33.4642 14.5505C33.4642 14.5505 31.6015 18.0574 27.1312 16.09L26.78 15.9424L26.5267 15.8461L24.805 15.1874C24.5235 15.0937 24.2384 15.0119 23.9496 14.942C23.4877 14.8301 22.8055 14.6671 22.678 14.6406C22.6282 14.6297 22.5994 14.6243 22.5868 14.6072C22.5555 14.5661 22.6037 14.5024 22.6037 14.5024C23.0382 13.9188 23.5909 13.4177 24.2317 13.0266L24.2781 12.9994C24.3465 12.9605 24.4175 12.9218 24.4892 12.8876C24.561 12.8534 24.6496 12.8099 24.7323 12.778C24.7957 12.7516 24.8607 12.7268 24.9266 12.7042C24.9924 12.6817 25.0465 12.6639 25.1081 12.6467C25.2263 12.6137 25.3468 12.5878 25.4687 12.5691C25.5553 12.5542 25.6427 12.5435 25.7305 12.5373C25.8064 12.531 25.8832 12.5279 25.9618 12.5279C25.9829 12.5267 26.0041 12.5267 26.0251 12.5279C27.23 12.6646 29.0793 13.6705 29.0793 13.6705C29.0793 13.6705 29.3411 13.7738 28.9003 14.1C28.7708 14.2005 28.618 14.2723 28.4536 14.3098C28.3488 14.3351 28.2383 14.3335 28.1344 14.3051C28.1344 14.3051 27.4589 14.1296 27.0367 14.0045C26.9287 13.9727 26.8375 13.9439 26.7767 13.9222C26.7681 13.9194 26.7589 13.9188 26.7501 13.9206C26.7413 13.9223 26.7332 13.9262 26.7267 13.9319C26.7201 13.9376 26.7154 13.9449 26.713 13.9529C26.7107 13.9609 26.7108 13.9693 26.7133 13.9773C26.7479 14.0806 26.8493 14.1987 27.0511 14.3416C27.5846 14.6735 28.1844 14.9047 28.8158 15.022C29.9475 15.2388 31.1265 15.0472 32.1089 14.4869L32.1182 14.4783C32.3496 14.3533 32.7177 14.1357 32.8976 14.0278C32.9842 13.9749 33.0858 13.9465 33.1898 13.9463C33.2115 13.9463 33.2333 13.9479 33.2548 13.9509C33.3187 13.9557 33.3795 13.9783 33.429 14.0158C33.4785 14.0533 33.5144 14.1038 33.5317 14.1606C33.5345 14.168 33.5368 14.1755 33.5385 14.1831C33.5385 14.1894 33.5385 14.1948 33.5385 14.201C33.5456 14.2268 33.5506 14.253 33.5537 14.2795Z" fill="url(#paint6_linear_618_692)"/>
<path style="mix-blend-mode:overlay" d="M33.5537 14.2795V14.323C33.5541 14.325 33.5541 14.3271 33.5537 14.3291C33.5542 14.3335 33.5542 14.338 33.5537 14.3424V14.361L33.5486 14.3812C33.527 14.4402 33.4986 14.4969 33.4642 14.5505C33.4642 14.5505 31.6015 18.0574 27.1312 16.09L26.78 15.9424L26.5267 15.8461L24.805 15.1874C24.5235 15.0937 24.2384 15.0119 23.9496 14.942C23.4877 14.8301 22.8055 14.6671 22.678 14.6406C22.6282 14.6297 22.5994 14.6243 22.5868 14.6072C22.5555 14.5661 22.6037 14.5024 22.6037 14.5024C23.0382 13.9188 23.5909 13.4177 24.2317 13.0266L24.2781 12.9994C24.3465 12.9605 24.4175 12.9218 24.4892 12.8876C24.561 12.8534 24.6496 12.8099 24.7323 12.778C24.7957 12.7516 24.8607 12.7268 24.9266 12.7042C24.9924 12.6817 25.0465 12.6639 25.1081 12.6467C25.2263 12.6137 25.3468 12.5878 25.4687 12.5691C25.5553 12.5542 25.6427 12.5435 25.7305 12.5373C25.8064 12.531 25.8832 12.5279 25.9618 12.5279C25.9829 12.5267 26.0041 12.5267 26.0251 12.5279C27.23 12.6646 29.0793 13.6705 29.0793 13.6705C29.0793 13.6705 29.3411 13.7738 28.9003 14.1C28.7708 14.2005 28.618 14.2723 28.4536 14.3098C28.3488 14.3351 28.2383 14.3335 28.1344 14.3051C28.1344 14.3051 27.4589 14.1296 27.0367 14.0045C26.9287 13.9727 26.8375 13.9439 26.7767 13.9222C26.7681 13.9194 26.7589 13.9188 26.7501 13.9206C26.7413 13.9223 26.7332 13.9262 26.7267 13.9319C26.7201 13.9376 26.7154 13.9449 26.713 13.9529C26.7107 13.9609 26.7108 13.9693 26.7133 13.9773C26.7479 14.0806 26.8493 14.1987 27.0511 14.3416C27.5846 14.6735 28.1844 14.9047 28.8158 15.022C29.9475 15.2388 31.1265 15.0472 32.1089 14.4869L32.1182 14.4783C32.3496 14.3533 32.7177 14.1357 32.8976 14.0278C32.9842 13.9749 33.0858 13.9465 33.1898 13.9463C33.2115 13.9463 33.2333 13.9479 33.2548 13.9509C33.3187 13.9557 33.3795 13.9783 33.429 14.0158C33.4785 14.0533 33.5144 14.1038 33.5317 14.1606C33.5345 14.168 33.5368 14.1755 33.5385 14.1831C33.5385 14.1894 33.5385 14.1948 33.5385 14.201C33.5456 14.2268 33.5506 14.253 33.5537 14.2795Z" fill="url(#paint7_radial_618_692)"/>
<path d="M30.9323 13.7531C30.8042 13.897 30.6484 14.0147 30.4741 14.0991C30.2997 14.1835 30.1102 14.2332 29.9163 14.2453C29.8894 14.2467 29.8627 14.2395 29.8404 14.2248C29.818 14.2099 29.8011 14.1884 29.7923 14.1633C29.7858 14.1466 29.783 14.1289 29.7841 14.1111C29.7852 14.0934 29.7903 14.076 29.799 14.0604C29.8076 14.0448 29.8196 14.0313 29.8341 14.0207C29.8487 14.0101 29.8653 14.0027 29.8829 13.9992C30.2169 13.9303 30.5164 13.7498 30.7309 13.4881C30.741 13.4752 30.7537 13.4645 30.7682 13.4565C30.7826 13.4485 30.7986 13.4435 30.815 13.4418C30.8315 13.44 30.8481 13.4415 30.864 13.4463C30.8799 13.451 30.8946 13.4588 30.9073 13.4693C30.9284 13.4859 30.9458 13.5066 30.9585 13.5301C30.9713 13.5536 30.979 13.5794 30.9814 13.6059C30.9838 13.6325 30.9806 13.6592 30.9721 13.6845C30.9637 13.7098 30.9502 13.7331 30.9323 13.7531Z" fill="#66D0CE"/>
<path d="M32.1768 13.9258C31.9264 14.2072 31.6222 14.437 31.2814 14.6023C30.9408 14.7676 30.5703 14.8649 30.1914 14.8888C30.1397 14.8919 30.0882 14.8786 30.0447 14.8507C30.0013 14.8228 29.9681 14.7818 29.9502 14.7338C29.9378 14.7017 29.9328 14.6673 29.9352 14.6331C29.9376 14.5988 29.9475 14.5656 29.9642 14.5354C29.9808 14.5053 30.0039 14.479 30.0317 14.4585C30.0596 14.438 30.0917 14.4235 30.1257 14.4164C30.7789 14.2802 31.364 13.9251 31.7816 13.4115C31.8015 13.3864 31.8264 13.3654 31.8548 13.35C31.8832 13.3345 31.9144 13.3249 31.9467 13.3216C31.9789 13.3183 32.0115 13.3215 32.0424 13.3308C32.0733 13.3403 32.1021 13.3557 32.1269 13.3763V13.3803C32.1667 13.4128 32.1996 13.4527 32.2237 13.4978C32.2478 13.5428 32.2626 13.5921 32.2672 13.6428C32.2719 13.6935 32.2662 13.7447 32.2508 13.7932C32.2352 13.8418 32.2101 13.8869 32.1768 13.9258Z" fill="#66D0CE"/>
<path d="M28.1822 6.76654C29.5812 6.76654 30.7155 5.64845 30.7155 4.26921C30.7155 2.88998 29.5812 1.7719 28.1822 1.7719C26.783 1.7719 25.6488 2.88998 25.6488 4.26921C25.6488 5.64845 26.783 6.76654 28.1822 6.76654Z" fill="#66D0CE"/>
<path d="M28.1822 6.76654C29.5812 6.76654 30.7155 5.64845 30.7155 4.26921C30.7155 2.88998 29.5812 1.7719 28.1822 1.7719C26.783 1.7719 25.6488 2.88998 25.6488 4.26921C25.6488 5.64845 26.783 6.76654 28.1822 6.76654Z" fill="url(#paint8_linear_618_692)"/>
<path style="mix-blend-mode:overlay" d="M28.1822 6.76654C29.5812 6.76654 30.7155 5.64845 30.7155 4.26921C30.7155 2.88998 29.5812 1.7719 28.1822 1.7719C26.783 1.7719 25.6488 2.88998 25.6488 4.26921C25.6488 5.64845 26.783 6.76654 28.1822 6.76654Z" fill="url(#paint9_radial_618_692)"/>
</g>
</g>
<path d="M47.1595 15.0147H50.8038V26.61H47.1595V15.0147ZM49.5117 17.9135V15.0147H51.7148C52.8523 15.0147 53.7744 15.1748 54.4811 15.4951C55.1989 15.8153 55.7235 16.2736 56.0548 16.87C56.3971 17.4552 56.5683 18.162 56.5683 18.9902C56.5683 19.8074 56.3971 20.5142 56.0548 21.1105C55.7235 21.7068 55.1989 22.1651 54.4811 22.4854C53.7744 22.8056 52.8523 22.9658 51.7148 22.9658H49.5117V20.0669H51.7148C52.1676 20.0669 52.5099 19.9731 52.7418 19.7853C52.9737 19.5976 53.0897 19.3326 53.0897 18.9902C53.0897 18.6479 52.9737 18.3829 52.7418 18.1951C52.5099 18.0074 52.1676 17.9135 51.7148 17.9135H49.5117ZM78.3903 21.0608V19.5866C78.8873 19.5866 79.2959 19.5424 79.6161 19.454C79.9474 19.3657 80.1904 19.2387 80.345 19.0731C80.4996 18.8964 80.5769 18.6976 80.5769 18.4767C80.5769 18.3 80.5217 18.1454 80.4112 18.0129C80.3118 17.8804 80.1572 17.7755 79.9474 17.6982C79.7486 17.6209 79.5002 17.5822 79.202 17.5822C78.8486 17.5822 78.5505 17.6319 78.3075 17.7313C78.0756 17.8197 77.8989 17.9522 77.7774 18.1289C77.667 18.2945 77.6118 18.4933 77.6118 18.7252H74.2823C74.2823 17.9853 74.4645 17.3172 74.8289 16.7209C75.1934 16.1245 75.74 15.6497 76.4688 15.2963C77.1977 14.9429 78.1143 14.7662 79.2186 14.7662C80.3229 14.7662 81.2395 14.9098 81.9683 15.1969C82.6972 15.484 83.2438 15.8761 83.6082 16.373C83.9726 16.87 84.1549 17.4332 84.1549 18.0626C84.1549 18.6148 84.0003 19.0841 83.691 19.4706C83.3818 19.8571 82.9567 20.1663 82.4156 20.3982C81.8855 20.6301 81.2726 20.8013 80.5769 20.9117C79.8812 21.0111 79.1523 21.0608 78.3903 21.0608ZM79.3842 26.9413C78.3903 26.9413 77.54 26.8198 76.8333 26.5769C76.1265 26.3339 75.5467 26.0026 75.094 25.583C74.6412 25.1633 74.3099 24.694 74.1001 24.175C73.8903 23.6449 73.7854 23.1038 73.7854 22.5516H77.3633C77.3633 22.9382 77.4517 23.2474 77.6284 23.4793C77.8161 23.7112 78.0535 23.8768 78.3406 23.9762C78.6278 24.0756 78.9204 24.1253 79.2186 24.1253C79.6713 24.1253 80.0634 24.0535 80.3947 23.91C80.737 23.7553 80.9082 23.4682 80.9082 23.0486C80.9082 22.8167 80.8364 22.6013 80.6928 22.4026C80.5493 22.2038 80.2953 22.0437 79.9309 21.9222C79.5664 21.7897 79.0529 21.7234 78.3903 21.7234V20.0007C79.583 20.0007 80.6376 20.1166 81.5542 20.3485C82.4708 20.5804 83.1886 20.9449 83.7076 21.4418C84.2266 21.9388 84.4862 22.5848 84.4862 23.3799C84.4862 24.0646 84.3039 24.6775 83.9395 25.2186C83.5751 25.7486 83.0119 26.1683 82.2499 26.4775C81.499 26.7867 80.5438 26.9413 79.3842 26.9413ZM95.5912 15.0147L90.1414 26.61H86.4972L88.104 23.0155L84.3272 15.0147H88.3028L90.4562 21.3921H89.0482L91.8642 15.0147H95.5912ZM100.335 21.8725L99.7389 26.61H95.8462L97.9996 14.4349L103.135 20.6964L108.27 14.4349L110.423 26.61H106.53L105.934 21.8725L103.135 25.5333L100.335 21.8725ZM112.865 22.2204V18.9902H122.142V22.2204H112.865ZM119.872 15.0147H123.516V26.61H119.872V15.0147ZM112.087 15.0147H115.731V26.61H112.087V15.0147ZM154.981 18.7418L144.048 27.1898L144.131 22.8829L155.064 14.4349L154.981 18.7418ZM147.527 15.0147V23.8768L144.048 27.1898V15.0147H147.527ZM155.064 14.4349V26.61H151.585V17.9135L155.064 14.4349ZM147.146 11.2877H149.067C149.067 11.5085 149.117 11.6797 149.216 11.8012C149.316 11.9226 149.432 12.0055 149.564 12.0496C149.697 12.0938 149.818 12.1159 149.929 12.1159C150.039 12.1159 150.161 12.0938 150.293 12.0496C150.426 12.0055 150.542 11.9226 150.641 11.8012C150.74 11.6797 150.79 11.5085 150.79 11.2877H152.712C152.712 11.7736 152.601 12.2042 152.38 12.5797C152.159 12.9552 151.839 13.2478 151.419 13.4576C151.011 13.6674 150.514 13.7724 149.929 13.7724C149.354 13.7724 148.857 13.6674 148.438 13.4576C148.018 13.2478 147.698 12.9552 147.477 12.5797C147.256 12.2042 147.146 11.7736 147.146 11.2877ZM157.378 15.0147H161.022V26.61H157.378V15.0147ZM159.73 17.9135V15.0147H161.933C163.07 15.0147 163.992 15.1748 164.699 15.4951C165.417 15.8153 165.942 16.2736 166.273 16.87C166.615 17.4552 166.786 18.162 166.786 18.9902C166.786 19.8074 166.615 20.5142 166.273 21.1105C165.942 21.7068 165.417 22.1651 164.699 22.4854C163.992 22.8056 163.07 22.9658 161.933 22.9658H159.73V20.0669H161.933C162.386 20.0669 162.728 19.9731 162.96 19.7853C163.192 19.5976 163.308 19.3326 163.308 18.9902C163.308 18.6479 163.192 18.3829 162.96 18.1951C162.728 18.0074 162.386 17.9135 161.933 17.9135H159.73ZM171.639 20.8124C171.639 21.3756 171.744 21.8725 171.954 22.3032C172.164 22.7339 172.462 23.0707 172.848 23.3136C173.235 23.5455 173.699 23.6615 174.24 23.6615C174.781 23.6615 175.245 23.5455 175.631 23.3136C176.018 23.0707 176.316 22.7339 176.526 22.3032C176.736 21.8725 176.841 21.3756 176.841 20.8124C176.841 20.2381 176.741 19.7412 176.542 19.3215C176.344 18.8908 176.051 18.5596 175.664 18.3277C175.289 18.0847 174.814 17.9632 174.24 17.9632C173.699 17.9632 173.235 18.0847 172.848 18.3277C172.462 18.5596 172.164 18.8908 171.954 19.3215C171.744 19.7412 171.639 20.2381 171.639 20.8124ZM167.78 20.8124C167.78 19.8847 167.945 19.0455 168.277 18.2945C168.608 17.5436 169.066 16.8976 169.652 16.3565C170.237 15.8153 170.921 15.4012 171.706 15.1141C172.49 14.827 173.334 14.6834 174.24 14.6834C175.168 14.6834 176.023 14.827 176.807 15.1141C177.592 15.4012 178.276 15.8153 178.861 16.3565C179.447 16.8976 179.9 17.5436 180.22 18.2945C180.54 19.0455 180.7 19.8847 180.7 20.8124C180.7 21.74 180.54 22.5903 180.22 23.3633C179.911 24.1253 179.469 24.7879 178.895 25.3511C178.32 25.9143 177.636 26.345 176.841 26.6431C176.057 26.9523 175.19 27.1069 174.24 27.1069C173.29 27.1069 172.418 26.9523 171.623 26.6431C170.839 26.345 170.159 25.9143 169.585 25.3511C169.011 24.7879 168.564 24.1253 168.244 23.3633C167.934 22.5903 167.78 21.74 167.78 20.8124Z" fill="#1DC4C5"/>
<path style="mix-blend-mode:overlay" d="M47.1595 15.0147H50.8038V26.61H47.1595V15.0147ZM49.5117 17.9135V15.0147H51.7148C52.8523 15.0147 53.7744 15.1748 54.4811 15.4951C55.1989 15.8153 55.7235 16.2736 56.0548 16.87C56.3971 17.4552 56.5683 18.162 56.5683 18.9902C56.5683 19.8074 56.3971 20.5142 56.0548 21.1105C55.7235 21.7068 55.1989 22.1651 54.4811 22.4854C53.7744 22.8056 52.8523 22.9658 51.7148 22.9658H49.5117V20.0669H51.7148C52.1676 20.0669 52.5099 19.9731 52.7418 19.7853C52.9737 19.5976 53.0897 19.3326 53.0897 18.9902C53.0897 18.6479 52.9737 18.3829 52.7418 18.1951C52.5099 18.0074 52.1676 17.9135 51.7148 17.9135H49.5117ZM78.3903 21.0608V19.5866C78.8873 19.5866 79.2959 19.5424 79.6161 19.454C79.9474 19.3657 80.1904 19.2387 80.345 19.0731C80.4996 18.8964 80.5769 18.6976 80.5769 18.4767C80.5769 18.3 80.5217 18.1454 80.4112 18.0129C80.3118 17.8804 80.1572 17.7755 79.9474 17.6982C79.7486 17.6209 79.5002 17.5822 79.202 17.5822C78.8486 17.5822 78.5505 17.6319 78.3075 17.7313C78.0756 17.8197 77.8989 17.9522 77.7774 18.1289C77.667 18.2945 77.6118 18.4933 77.6118 18.7252H74.2823C74.2823 17.9853 74.4645 17.3172 74.8289 16.7209C75.1934 16.1245 75.74 15.6497 76.4688 15.2963C77.1977 14.9429 78.1143 14.7662 79.2186 14.7662C80.3229 14.7662 81.2395 14.9098 81.9683 15.1969C82.6972 15.484 83.2438 15.8761 83.6082 16.373C83.9726 16.87 84.1549 17.4332 84.1549 18.0626C84.1549 18.6148 84.0003 19.0841 83.691 19.4706C83.3818 19.8571 82.9567 20.1663 82.4156 20.3982C81.8855 20.6301 81.2726 20.8013 80.5769 20.9117C79.8812 21.0111 79.1523 21.0608 78.3903 21.0608ZM79.3842 26.9413C78.3903 26.9413 77.54 26.8198 76.8333 26.5769C76.1265 26.3339 75.5467 26.0026 75.094 25.583C74.6412 25.1633 74.3099 24.694 74.1001 24.175C73.8903 23.6449 73.7854 23.1038 73.7854 22.5516H77.3633C77.3633 22.9382 77.4517 23.2474 77.6284 23.4793C77.8161 23.7112 78.0535 23.8768 78.3406 23.9762C78.6278 24.0756 78.9204 24.1253 79.2186 24.1253C79.6713 24.1253 80.0634 24.0535 80.3947 23.91C80.737 23.7553 80.9082 23.4682 80.9082 23.0486C80.9082 22.8167 80.8364 22.6013 80.6928 22.4026C80.5493 22.2038 80.2953 22.0437 79.9309 21.9222C79.5664 21.7897 79.0529 21.7234 78.3903 21.7234V20.0007C79.583 20.0007 80.6376 20.1166 81.5542 20.3485C82.4708 20.5804 83.1886 20.9449 83.7076 21.4418C84.2266 21.9388 84.4862 22.5848 84.4862 23.3799C84.4862 24.0646 84.3039 24.6775 83.9395 25.2186C83.5751 25.7486 83.0119 26.1683 82.2499 26.4775C81.499 26.7867 80.5438 26.9413 79.3842 26.9413ZM95.5912 15.0147L90.1414 26.61H86.4972L88.104 23.0155L84.3272 15.0147H88.3028L90.4562 21.3921H89.0482L91.8642 15.0147H95.5912ZM100.335 21.8725L99.7389 26.61H95.8462L97.9996 14.4349L103.135 20.6964L108.27 14.4349L110.423 26.61H106.53L105.934 21.8725L103.135 25.5333L100.335 21.8725ZM112.865 22.2204V18.9902H122.142V22.2204H112.865ZM119.872 15.0147H123.516V26.61H119.872V15.0147ZM112.087 15.0147H115.731V26.61H112.087V15.0147ZM154.981 18.7418L144.048 27.1898L144.131 22.8829L155.064 14.4349L154.981 18.7418ZM147.527 15.0147V23.8768L144.048 27.1898V15.0147H147.527ZM155.064 14.4349V26.61H151.585V17.9135L155.064 14.4349ZM147.146 11.2877H149.067C149.067 11.5085 149.117 11.6797 149.216 11.8012C149.316 11.9226 149.432 12.0055 149.564 12.0496C149.697 12.0938 149.818 12.1159 149.929 12.1159C150.039 12.1159 150.161 12.0938 150.293 12.0496C150.426 12.0055 150.542 11.9226 150.641 11.8012C150.74 11.6797 150.79 11.5085 150.79 11.2877H152.712C152.712 11.7736 152.601 12.2042 152.38 12.5797C152.159 12.9552 151.839 13.2478 151.419 13.4576C151.011 13.6674 150.514 13.7724 149.929 13.7724C149.354 13.7724 148.857 13.6674 148.438 13.4576C148.018 13.2478 147.698 12.9552 147.477 12.5797C147.256 12.2042 147.146 11.7736 147.146 11.2877ZM157.378 15.0147H161.022V26.61H157.378V15.0147ZM159.73 17.9135V15.0147H161.933C163.07 15.0147 163.992 15.1748 164.699 15.4951C165.417 15.8153 165.942 16.2736 166.273 16.87C166.615 17.4552 166.786 18.162 166.786 18.9902C166.786 19.8074 166.615 20.5142 166.273 21.1105C165.942 21.7068 165.417 22.1651 164.699 22.4854C163.992 22.8056 163.07 22.9658 161.933 22.9658H159.73V20.0669H161.933C162.386 20.0669 162.728 19.9731 162.96 19.7853C163.192 19.5976 163.308 19.3326 163.308 18.9902C163.308 18.6479 163.192 18.3829 162.96 18.1951C162.728 18.0074 162.386 17.9135 161.933 17.9135H159.73ZM171.639 20.8124C171.639 21.3756 171.744 21.8725 171.954 22.3032C172.164 22.7339 172.462 23.0707 172.848 23.3136C173.235 23.5455 173.699 23.6615 174.24 23.6615C174.781 23.6615 175.245 23.5455 175.631 23.3136C176.018 23.0707 176.316 22.7339 176.526 22.3032C176.736 21.8725 176.841 21.3756 176.841 20.8124C176.841 20.2381 176.741 19.7412 176.542 19.3215C176.344 18.8908 176.051 18.5596 175.664 18.3277C175.289 18.0847 174.814 17.9632 174.24 17.9632C173.699 17.9632 173.235 18.0847 172.848 18.3277C172.462 18.5596 172.164 18.8908 171.954 19.3215C171.744 19.7412 171.639 20.2381 171.639 20.8124ZM167.78 20.8124C167.78 19.8847 167.945 19.0455 168.277 18.2945C168.608 17.5436 169.066 16.8976 169.652 16.3565C170.237 15.8153 170.921 15.4012 171.706 15.1141C172.49 14.827 173.334 14.6834 174.24 14.6834C175.168 14.6834 176.023 14.827 176.807 15.1141C177.592 15.4012 178.276 15.8153 178.861 16.3565C179.447 16.8976 179.9 17.5436 180.22 18.2945C180.54 19.0455 180.7 19.8847 180.7 20.8124C180.7 21.74 180.54 22.5903 180.22 23.3633C179.911 24.1253 179.469 24.7879 178.895 25.3511C178.32 25.9143 177.636 26.345 176.841 26.6431C176.057 26.9523 175.19 27.1069 174.24 27.1069C173.29 27.1069 172.418 26.9523 171.623 26.6431C170.839 26.345 170.159 25.9143 169.585 25.3511C169.011 24.7879 168.564 24.1253 168.244 23.3633C167.934 22.5903 167.78 21.74 167.78 20.8124Z" fill="url(#paint10_radial_618_692)"/>
<g style="mix-blend-mode:color">
<path d="M47.1595 15.0147H50.8038V26.61H47.1595V15.0147ZM49.5117 17.9135V15.0147H51.7148C52.8523 15.0147 53.7744 15.1748 54.4811 15.4951C55.1989 15.8153 55.7235 16.2736 56.0548 16.87C56.3971 17.4552 56.5683 18.162 56.5683 18.9902C56.5683 19.8074 56.3971 20.5142 56.0548 21.1105C55.7235 21.7068 55.1989 22.1651 54.4811 22.4854C53.7744 22.8056 52.8523 22.9658 51.7148 22.9658H49.5117V20.0669H51.7148C52.1676 20.0669 52.5099 19.9731 52.7418 19.7853C52.9737 19.5976 53.0897 19.3326 53.0897 18.9902C53.0897 18.6479 52.9737 18.3829 52.7418 18.1951C52.5099 18.0074 52.1676 17.9135 51.7148 17.9135H49.5117ZM78.3903 21.0608V19.5866C78.8873 19.5866 79.2959 19.5424 79.6161 19.454C79.9474 19.3657 80.1904 19.2387 80.345 19.0731C80.4996 18.8964 80.5769 18.6976 80.5769 18.4767C80.5769 18.3 80.5217 18.1454 80.4112 18.0129C80.3118 17.8804 80.1572 17.7755 79.9474 17.6982C79.7486 17.6209 79.5002 17.5822 79.202 17.5822C78.8486 17.5822 78.5505 17.6319 78.3075 17.7313C78.0756 17.8197 77.8989 17.9522 77.7774 18.1289C77.667 18.2945 77.6118 18.4933 77.6118 18.7252H74.2823C74.2823 17.9853 74.4645 17.3172 74.8289 16.7209C75.1934 16.1245 75.74 15.6497 76.4688 15.2963C77.1977 14.9429 78.1143 14.7662 79.2186 14.7662C80.3229 14.7662 81.2395 14.9098 81.9683 15.1969C82.6972 15.484 83.2438 15.8761 83.6082 16.373C83.9726 16.87 84.1549 17.4332 84.1549 18.0626C84.1549 18.6148 84.0003 19.0841 83.691 19.4706C83.3818 19.8571 82.9567 20.1663 82.4156 20.3982C81.8855 20.6301 81.2726 20.8013 80.5769 20.9117C79.8812 21.0111 79.1523 21.0608 78.3903 21.0608ZM79.3842 26.9413C78.3903 26.9413 77.54 26.8198 76.8333 26.5769C76.1265 26.3339 75.5467 26.0026 75.094 25.583C74.6412 25.1633 74.3099 24.694 74.1001 24.175C73.8903 23.6449 73.7854 23.1038 73.7854 22.5516H77.3633C77.3633 22.9382 77.4517 23.2474 77.6284 23.4793C77.8161 23.7112 78.0535 23.8768 78.3406 23.9762C78.6278 24.0756 78.9204 24.1253 79.2186 24.1253C79.6713 24.1253 80.0634 24.0535 80.3947 23.91C80.737 23.7553 80.9082 23.4682 80.9082 23.0486C80.9082 22.8167 80.8364 22.6013 80.6928 22.4026C80.5493 22.2038 80.2953 22.0437 79.9309 21.9222C79.5664 21.7897 79.0529 21.7234 78.3903 21.7234V20.0007C79.583 20.0007 80.6376 20.1166 81.5542 20.3485C82.4708 20.5804 83.1886 20.9449 83.7076 21.4418C84.2266 21.9388 84.4862 22.5848 84.4862 23.3799C84.4862 24.0646 84.3039 24.6775 83.9395 25.2186C83.5751 25.7486 83.0119 26.1683 82.2499 26.4775C81.499 26.7867 80.5438 26.9413 79.3842 26.9413ZM95.5912 15.0147L90.1414 26.61H86.4972L88.104 23.0155L84.3272 15.0147H88.3028L90.4562 21.3921H89.0482L91.8642 15.0147H95.5912ZM100.335 21.8725L99.7389 26.61H95.8462L97.9996 14.4349L103.135 20.6964L108.27 14.4349L110.423 26.61H106.53L105.934 21.8725L103.135 25.5333L100.335 21.8725ZM112.865 22.2204V18.9902H122.142V22.2204H112.865ZM119.872 15.0147H123.516V26.61H119.872V15.0147ZM112.087 15.0147H115.731V26.61H112.087V15.0147ZM154.981 18.7418L144.048 27.1898L144.131 22.8829L155.064 14.4349L154.981 18.7418ZM147.527 15.0147V23.8768L144.048 27.1898V15.0147H147.527ZM155.064 14.4349V26.61H151.585V17.9135L155.064 14.4349ZM147.146 11.2877H149.067C149.067 11.5085 149.117 11.6797 149.216 11.8012C149.316 11.9226 149.432 12.0055 149.564 12.0496C149.697 12.0938 149.818 12.1159 149.929 12.1159C150.039 12.1159 150.161 12.0938 150.293 12.0496C150.426 12.0055 150.542 11.9226 150.641 11.8012C150.74 11.6797 150.79 11.5085 150.79 11.2877H152.712C152.712 11.7736 152.601 12.2042 152.38 12.5797C152.159 12.9552 151.839 13.2478 151.419 13.4576C151.011 13.6674 150.514 13.7724 149.929 13.7724C149.354 13.7724 148.857 13.6674 148.438 13.4576C148.018 13.2478 147.698 12.9552 147.477 12.5797C147.256 12.2042 147.146 11.7736 147.146 11.2877ZM157.378 15.0147H161.022V26.61H157.378V15.0147ZM159.73 17.9135V15.0147H161.933C163.07 15.0147 163.992 15.1748 164.699 15.4951C165.417 15.8153 165.942 16.2736 166.273 16.87C166.615 17.4552 166.786 18.162 166.786 18.9902C166.786 19.8074 166.615 20.5142 166.273 21.1105C165.942 21.7068 165.417 22.1651 164.699 22.4854C163.992 22.8056 163.07 22.9658 161.933 22.9658H159.73V20.0669H161.933C162.386 20.0669 162.728 19.9731 162.96 19.7853C163.192 19.5976 163.308 19.3326 163.308 18.9902C163.308 18.6479 163.192 18.3829 162.96 18.1951C162.728 18.0074 162.386 17.9135 161.933 17.9135H159.73ZM171.639 20.8124C171.639 21.3756 171.744 21.8725 171.954 22.3032C172.164 22.7339 172.462 23.0707 172.848 23.3136C173.235 23.5455 173.699 23.6615 174.24 23.6615C174.781 23.6615 175.245 23.5455 175.631 23.3136C176.018 23.0707 176.316 22.7339 176.526 22.3032C176.736 21.8725 176.841 21.3756 176.841 20.8124C176.841 20.2381 176.741 19.7412 176.542 19.3215C176.344 18.8908 176.051 18.5596 175.664 18.3277C175.289 18.0847 174.814 17.9632 174.24 17.9632C173.699 17.9632 173.235 18.0847 172.848 18.3277C172.462 18.5596 172.164 18.8908 171.954 19.3215C171.744 19.7412 171.639 20.2381 171.639 20.8124ZM167.78 20.8124C167.78 19.8847 167.945 19.0455 168.277 18.2945C168.608 17.5436 169.066 16.8976 169.652 16.3565C170.237 15.8153 170.921 15.4012 171.706 15.1141C172.49 14.827 173.334 14.6834 174.24 14.6834C175.168 14.6834 176.023 14.827 176.807 15.1141C177.592 15.4012 178.276 15.8153 178.861 16.3565C179.447 16.8976 179.9 17.5436 180.22 18.2945C180.54 19.0455 180.7 19.8847 180.7 20.8124C180.7 21.74 180.54 22.5903 180.22 23.3633C179.911 24.1253 179.469 24.7879 178.895 25.3511C178.32 25.9143 177.636 26.345 176.841 26.6431C176.057 26.9523 175.19 27.1069 174.24 27.1069C173.29 27.1069 172.418 26.9523 171.623 26.6431C170.839 26.345 170.159 25.9143 169.585 25.3511C169.011 24.7879 168.564 24.1253 168.244 23.3633C167.934 22.5903 167.78 21.74 167.78 20.8124Z" fill="#1DC4C5"/>
<path d="M47.1595 15.0147H50.8038V26.61H47.1595V15.0147ZM49.5117 17.9135V15.0147H51.7148C52.8523 15.0147 53.7744 15.1748 54.4811 15.4951C55.1989 15.8153 55.7235 16.2736 56.0548 16.87C56.3971 17.4552 56.5683 18.162 56.5683 18.9902C56.5683 19.8074 56.3971 20.5142 56.0548 21.1105C55.7235 21.7068 55.1989 22.1651 54.4811 22.4854C53.7744 22.8056 52.8523 22.9658 51.7148 22.9658H49.5117V20.0669H51.7148C52.1676 20.0669 52.5099 19.9731 52.7418 19.7853C52.9737 19.5976 53.0897 19.3326 53.0897 18.9902C53.0897 18.6479 52.9737 18.3829 52.7418 18.1951C52.5099 18.0074 52.1676 17.9135 51.7148 17.9135H49.5117ZM78.3903 21.0608V19.5866C78.8873 19.5866 79.2959 19.5424 79.6161 19.454C79.9474 19.3657 80.1904 19.2387 80.345 19.0731C80.4996 18.8964 80.5769 18.6976 80.5769 18.4767C80.5769 18.3 80.5217 18.1454 80.4112 18.0129C80.3118 17.8804 80.1572 17.7755 79.9474 17.6982C79.7486 17.6209 79.5002 17.5822 79.202 17.5822C78.8486 17.5822 78.5505 17.6319 78.3075 17.7313C78.0756 17.8197 77.8989 17.9522 77.7774 18.1289C77.667 18.2945 77.6118 18.4933 77.6118 18.7252H74.2823C74.2823 17.9853 74.4645 17.3172 74.8289 16.7209C75.1934 16.1245 75.74 15.6497 76.4688 15.2963C77.1977 14.9429 78.1143 14.7662 79.2186 14.7662C80.3229 14.7662 81.2395 14.9098 81.9683 15.1969C82.6972 15.484 83.2438 15.8761 83.6082 16.373C83.9726 16.87 84.1549 17.4332 84.1549 18.0626C84.1549 18.6148 84.0003 19.0841 83.691 19.4706C83.3818 19.8571 82.9567 20.1663 82.4156 20.3982C81.8855 20.6301 81.2726 20.8013 80.5769 20.9117C79.8812 21.0111 79.1523 21.0608 78.3903 21.0608ZM79.3842 26.9413C78.3903 26.9413 77.54 26.8198 76.8333 26.5769C76.1265 26.3339 75.5467 26.0026 75.094 25.583C74.6412 25.1633 74.3099 24.694 74.1001 24.175C73.8903 23.6449 73.7854 23.1038 73.7854 22.5516H77.3633C77.3633 22.9382 77.4517 23.2474 77.6284 23.4793C77.8161 23.7112 78.0535 23.8768 78.3406 23.9762C78.6278 24.0756 78.9204 24.1253 79.2186 24.1253C79.6713 24.1253 80.0634 24.0535 80.3947 23.91C80.737 23.7553 80.9082 23.4682 80.9082 23.0486C80.9082 22.8167 80.8364 22.6013 80.6928 22.4026C80.5493 22.2038 80.2953 22.0437 79.9309 21.9222C79.5664 21.7897 79.0529 21.7234 78.3903 21.7234V20.0007C79.583 20.0007 80.6376 20.1166 81.5542 20.3485C82.4708 20.5804 83.1886 20.9449 83.7076 21.4418C84.2266 21.9388 84.4862 22.5848 84.4862 23.3799C84.4862 24.0646 84.3039 24.6775 83.9395 25.2186C83.5751 25.7486 83.0119 26.1683 82.2499 26.4775C81.499 26.7867 80.5438 26.9413 79.3842 26.9413ZM95.5912 15.0147L90.1414 26.61H86.4972L88.104 23.0155L84.3272 15.0147H88.3028L90.4562 21.3921H89.0482L91.8642 15.0147H95.5912ZM100.335 21.8725L99.7389 26.61H95.8462L97.9996 14.4349L103.135 20.6964L108.27 14.4349L110.423 26.61H106.53L105.934 21.8725L103.135 25.5333L100.335 21.8725ZM112.865 22.2204V18.9902H122.142V22.2204H112.865ZM119.872 15.0147H123.516V26.61H119.872V15.0147ZM112.087 15.0147H115.731V26.61H112.087V15.0147ZM154.981 18.7418L144.048 27.1898L144.131 22.8829L155.064 14.4349L154.981 18.7418ZM147.527 15.0147V23.8768L144.048 27.1898V15.0147H147.527ZM155.064 14.4349V26.61H151.585V17.9135L155.064 14.4349ZM147.146 11.2877H149.067C149.067 11.5085 149.117 11.6797 149.216 11.8012C149.316 11.9226 149.432 12.0055 149.564 12.0496C149.697 12.0938 149.818 12.1159 149.929 12.1159C150.039 12.1159 150.161 12.0938 150.293 12.0496C150.426 12.0055 150.542 11.9226 150.641 11.8012C150.74 11.6797 150.79 11.5085 150.79 11.2877H152.712C152.712 11.7736 152.601 12.2042 152.38 12.5797C152.159 12.9552 151.839 13.2478 151.419 13.4576C151.011 13.6674 150.514 13.7724 149.929 13.7724C149.354 13.7724 148.857 13.6674 148.438 13.4576C148.018 13.2478 147.698 12.9552 147.477 12.5797C147.256 12.2042 147.146 11.7736 147.146 11.2877ZM157.378 15.0147H161.022V26.61H157.378V15.0147ZM159.73 17.9135V15.0147H161.933C163.07 15.0147 163.992 15.1748 164.699 15.4951C165.417 15.8153 165.942 16.2736 166.273 16.87C166.615 17.4552 166.786 18.162 166.786 18.9902C166.786 19.8074 166.615 20.5142 166.273 21.1105C165.942 21.7068 165.417 22.1651 164.699 22.4854C163.992 22.8056 163.07 22.9658 161.933 22.9658H159.73V20.0669H161.933C162.386 20.0669 162.728 19.9731 162.96 19.7853C163.192 19.5976 163.308 19.3326 163.308 18.9902C163.308 18.6479 163.192 18.3829 162.96 18.1951C162.728 18.0074 162.386 17.9135 161.933 17.9135H159.73ZM171.639 20.8124C171.639 21.3756 171.744 21.8725 171.954 22.3032C172.164 22.7339 172.462 23.0707 172.848 23.3136C173.235 23.5455 173.699 23.6615 174.24 23.6615C174.781 23.6615 175.245 23.5455 175.631 23.3136C176.018 23.0707 176.316 22.7339 176.526 22.3032C176.736 21.8725 176.841 21.3756 176.841 20.8124C176.841 20.2381 176.741 19.7412 176.542 19.3215C176.344 18.8908 176.051 18.5596 175.664 18.3277C175.289 18.0847 174.814 17.9632 174.24 17.9632C173.699 17.9632 173.235 18.0847 172.848 18.3277C172.462 18.5596 172.164 18.8908 171.954 19.3215C171.744 19.7412 171.639 20.2381 171.639 20.8124ZM167.78 20.8124C167.78 19.8847 167.945 19.0455 168.277 18.2945C168.608 17.5436 169.066 16.8976 169.652 16.3565C170.237 15.8153 170.921 15.4012 171.706 15.1141C172.49 14.827 173.334 14.6834 174.24 14.6834C175.168 14.6834 176.023 14.827 176.807 15.1141C177.592 15.4012 178.276 15.8153 178.861 16.3565C179.447 16.8976 179.9 17.5436 180.22 18.2945C180.54 19.0455 180.7 19.8847 180.7 20.8124C180.7 21.74 180.54 22.5903 180.22 23.3633C179.911 24.1253 179.469 24.7879 178.895 25.3511C178.32 25.9143 177.636 26.345 176.841 26.6431C176.057 26.9523 175.19 27.1069 174.24 27.1069C173.29 27.1069 172.418 26.9523 171.623 26.6431C170.839 26.345 170.159 25.9143 169.585 25.3511C169.011 24.7879 168.564 24.1253 168.244 23.3633C167.934 22.5903 167.78 21.74 167.78 20.8124Z" fill="url(#paint11_linear_618_692)"/>
<path style="mix-blend-mode:overlay" d="M47.1595 15.0147H50.8038V26.61H47.1595V15.0147ZM49.5117 17.9135V15.0147H51.7148C52.8523 15.0147 53.7744 15.1748 54.4811 15.4951C55.1989 15.8153 55.7235 16.2736 56.0548 16.87C56.3971 17.4552 56.5683 18.162 56.5683 18.9902C56.5683 19.8074 56.3971 20.5142 56.0548 21.1105C55.7235 21.7068 55.1989 22.1651 54.4811 22.4854C53.7744 22.8056 52.8523 22.9658 51.7148 22.9658H49.5117V20.0669H51.7148C52.1676 20.0669 52.5099 19.9731 52.7418 19.7853C52.9737 19.5976 53.0897 19.3326 53.0897 18.9902C53.0897 18.6479 52.9737 18.3829 52.7418 18.1951C52.5099 18.0074 52.1676 17.9135 51.7148 17.9135H49.5117ZM78.3903 21.0608V19.5866C78.8873 19.5866 79.2959 19.5424 79.6161 19.454C79.9474 19.3657 80.1904 19.2387 80.345 19.0731C80.4996 18.8964 80.5769 18.6976 80.5769 18.4767C80.5769 18.3 80.5217 18.1454 80.4112 18.0129C80.3118 17.8804 80.1572 17.7755 79.9474 17.6982C79.7486 17.6209 79.5002 17.5822 79.202 17.5822C78.8486 17.5822 78.5505 17.6319 78.3075 17.7313C78.0756 17.8197 77.8989 17.9522 77.7774 18.1289C77.667 18.2945 77.6118 18.4933 77.6118 18.7252H74.2823C74.2823 17.9853 74.4645 17.3172 74.8289 16.7209C75.1934 16.1245 75.74 15.6497 76.4688 15.2963C77.1977 14.9429 78.1143 14.7662 79.2186 14.7662C80.3229 14.7662 81.2395 14.9098 81.9683 15.1969C82.6972 15.484 83.2438 15.8761 83.6082 16.373C83.9726 16.87 84.1549 17.4332 84.1549 18.0626C84.1549 18.6148 84.0003 19.0841 83.691 19.4706C83.3818 19.8571 82.9567 20.1663 82.4156 20.3982C81.8855 20.6301 81.2726 20.8013 80.5769 20.9117C79.8812 21.0111 79.1523 21.0608 78.3903 21.0608ZM79.3842 26.9413C78.3903 26.9413 77.54 26.8198 76.8333 26.5769C76.1265 26.3339 75.5467 26.0026 75.094 25.583C74.6412 25.1633 74.3099 24.694 74.1001 24.175C73.8903 23.6449 73.7854 23.1038 73.7854 22.5516H77.3633C77.3633 22.9382 77.4517 23.2474 77.6284 23.4793C77.8161 23.7112 78.0535 23.8768 78.3406 23.9762C78.6278 24.0756 78.9204 24.1253 79.2186 24.1253C79.6713 24.1253 80.0634 24.0535 80.3947 23.91C80.737 23.7553 80.9082 23.4682 80.9082 23.0486C80.9082 22.8167 80.8364 22.6013 80.6928 22.4026C80.5493 22.2038 80.2953 22.0437 79.9309 21.9222C79.5664 21.7897 79.0529 21.7234 78.3903 21.7234V20.0007C79.583 20.0007 80.6376 20.1166 81.5542 20.3485C82.4708 20.5804 83.1886 20.9449 83.7076 21.4418C84.2266 21.9388 84.4862 22.5848 84.4862 23.3799C84.4862 24.0646 84.3039 24.6775 83.9395 25.2186C83.5751 25.7486 83.0119 26.1683 82.2499 26.4775C81.499 26.7867 80.5438 26.9413 79.3842 26.9413ZM95.5912 15.0147L90.1414 26.61H86.4972L88.104 23.0155L84.3272 15.0147H88.3028L90.4562 21.3921H89.0482L91.8642 15.0147H95.5912ZM100.335 21.8725L99.7389 26.61H95.8462L97.9996 14.4349L103.135 20.6964L108.27 14.4349L110.423 26.61H106.53L105.934 21.8725L103.135 25.5333L100.335 21.8725ZM112.865 22.2204V18.9902H122.142V22.2204H112.865ZM119.872 15.0147H123.516V26.61H119.872V15.0147ZM112.087 15.0147H115.731V26.61H112.087V15.0147ZM154.981 18.7418L144.048 27.1898L144.131 22.8829L155.064 14.4349L154.981 18.7418ZM147.527 15.0147V23.8768L144.048 27.1898V15.0147H147.527ZM155.064 14.4349V26.61H151.585V17.9135L155.064 14.4349ZM147.146 11.2877H149.067C149.067 11.5085 149.117 11.6797 149.216 11.8012C149.316 11.9226 149.432 12.0055 149.564 12.0496C149.697 12.0938 149.818 12.1159 149.929 12.1159C150.039 12.1159 150.161 12.0938 150.293 12.0496C150.426 12.0055 150.542 11.9226 150.641 11.8012C150.74 11.6797 150.79 11.5085 150.79 11.2877H152.712C152.712 11.7736 152.601 12.2042 152.38 12.5797C152.159 12.9552 151.839 13.2478 151.419 13.4576C151.011 13.6674 150.514 13.7724 149.929 13.7724C149.354 13.7724 148.857 13.6674 148.438 13.4576C148.018 13.2478 147.698 12.9552 147.477 12.5797C147.256 12.2042 147.146 11.7736 147.146 11.2877ZM157.378 15.0147H161.022V26.61H157.378V15.0147ZM159.73 17.9135V15.0147H161.933C163.07 15.0147 163.992 15.1748 164.699 15.4951C165.417 15.8153 165.942 16.2736 166.273 16.87C166.615 17.4552 166.786 18.162 166.786 18.9902C166.786 19.8074 166.615 20.5142 166.273 21.1105C165.942 21.7068 165.417 22.1651 164.699 22.4854C163.992 22.8056 163.07 22.9658 161.933 22.9658H159.73V20.0669H161.933C162.386 20.0669 162.728 19.9731 162.96 19.7853C163.192 19.5976 163.308 19.3326 163.308 18.9902C163.308 18.6479 163.192 18.3829 162.96 18.1951C162.728 18.0074 162.386 17.9135 161.933 17.9135H159.73ZM171.639 20.8124C171.639 21.3756 171.744 21.8725 171.954 22.3032C172.164 22.7339 172.462 23.0707 172.848 23.3136C173.235 23.5455 173.699 23.6615 174.24 23.6615C174.781 23.6615 175.245 23.5455 175.631 23.3136C176.018 23.0707 176.316 22.7339 176.526 22.3032C176.736 21.8725 176.841 21.3756 176.841 20.8124C176.841 20.2381 176.741 19.7412 176.542 19.3215C176.344 18.8908 176.051 18.5596 175.664 18.3277C175.289 18.0847 174.814 17.9632 174.24 17.9632C173.699 17.9632 173.235 18.0847 172.848 18.3277C172.462 18.5596 172.164 18.8908 171.954 19.3215C171.744 19.7412 171.639 20.2381 171.639 20.8124ZM167.78 20.8124C167.78 19.8847 167.945 19.0455 168.277 18.2945C168.608 17.5436 169.066 16.8976 169.652 16.3565C170.237 15.8153 170.921 15.4012 171.706 15.1141C172.49 14.827 173.334 14.6834 174.24 14.6834C175.168 14.6834 176.023 14.827 176.807 15.1141C177.592 15.4012 178.276 15.8153 178.861 16.3565C179.447 16.8976 179.9 17.5436 180.22 18.2945C180.54 19.0455 180.7 19.8847 180.7 20.8124C180.7 21.74 180.54 22.5903 180.22 23.3633C179.911 24.1253 179.469 24.7879 178.895 25.3511C178.32 25.9143 177.636 26.345 176.841 26.6431C176.057 26.9523 175.19 27.1069 174.24 27.1069C173.29 27.1069 172.418 26.9523 171.623 26.6431C170.839 26.345 170.159 25.9143 169.585 25.3511C169.011 24.7879 168.564 24.1253 168.244 23.3633C167.934 22.5903 167.78 21.74 167.78 20.8124Z" fill="url(#paint12_radial_618_692)"/>
</g>
<path fill-rule="evenodd" clip-rule="evenodd" d="M127.271 14.61H140.271V17.3373H127.271V14.61ZM140.271 19.5191H127.271V22.2464H140.271V19.5191ZM140.271 23.8827H127.271V26.61H140.271V23.8827Z" fill="#45E1EB"/>
<path fill-rule="evenodd" clip-rule="evenodd" d="M127.271 14.61H140.271V17.3373H127.271V14.61ZM140.271 19.5191H127.271V22.2464H140.271V19.5191ZM140.271 23.8827H127.271V26.61H140.271V23.8827Z" fill="#8ADBDD"/>
<path d="M71.4235 21.7865H68.1735L64.923 18.2838L62.0346 21.7865H58.4235L64.923 13.7865L71.4235 21.7865Z" fill="#45E1EB"/>
<path d="M71.4235 21.7865H68.1735L64.923 18.2838L62.0346 21.7865H58.4235L64.923 13.7865L71.4235 21.7865Z" fill="#8ADBDD"/>
<path d="M71.4236 23.6218H58.4236V26.6218H71.4236V23.6218Z" fill="#45E1EB"/>
<path d="M71.4236 23.6218H58.4236V26.6218H71.4236V23.6218Z" fill="#8ADBDD"/>
<defs>
<linearGradient id="paint0_linear_618_692" x1="0.844444" y1="27.9533" x2="36.2702" y2="14.9847" gradientUnits="userSpaceOnUse">
<stop offset="0.0677083" stop-color="#00A19F"/>
<stop offset="0.21875" stop-color="#66D0CE"/>
<stop offset="0.453125" stop-color="#00B0AD"/>
<stop offset="0.524381" stop-color="#00B0AD"/>
<stop offset="0.796875" stop-color="#00B0AD"/>
<stop offset="0.895833" stop-color="#00B0AD"/>
<stop offset="1" stop-color="#018D8B"/>
</linearGradient>
<radialGradient id="paint1_radial_618_692" cx="0" cy="0" r="1" gradientUnits="userSpaceOnUse" gradientTransform="translate(0.844444 7.37462) rotate(53.5106) scale(27.3471 32.0135)">
<stop stop-color="white"/>
<stop offset="1" stop-color="white" stop-opacity="0"/>
</radialGradient>
<linearGradient id="paint2_linear_618_692" x1="16.0434" y1="20.5833" x2="31.8057" y2="9.24898" gradientUnits="userSpaceOnUse">
<stop offset="0.0677083" stop-color="#00A19F"/>
<stop offset="0.21875" stop-color="#66D0CE"/>
<stop offset="0.453125" stop-color="#00B0AD"/>
<stop offset="0.524381" stop-color="#00B0AD"/>
<stop offset="0.796875" stop-color="#00B0AD"/>
<stop offset="0.895833" stop-color="#00B0AD"/>
<stop offset="1" stop-color="#018D8B"/>
</linearGradient>
<radialGradient id="paint3_radial_618_692" cx="0" cy="0" r="1" gradientUnits="userSpaceOnUse" gradientTransform="translate(16.0434 14.3474) rotate(34.5382) scale(11.7513 13.438)">
<stop stop-color="white"/>
<stop offset="1" stop-color="white" stop-opacity="0"/>
</radialGradient>
<linearGradient id="paint4_linear_618_692" x1="6.24949" y1="5.44269" x2="13.3168" y2="3.40989" gradientUnits="userSpaceOnUse">
<stop offset="0.0677083" stop-color="#00A19F"/>
<stop offset="0.21875" stop-color="#66D0CE"/>
<stop offset="0.453125" stop-color="#00B0AD"/>
<stop offset="0.524381" stop-color="#00B0AD"/>
<stop offset="0.796875" stop-color="#00B0AD"/>
<stop offset="0.895833" stop-color="#00B0AD"/>
<stop offset="1" stop-color="#018D8B"/>
</linearGradient>
<radialGradient id="paint5_radial_618_692" cx="0" cy="0" r="1" gradientUnits="userSpaceOnUse" gradientTransform="translate(6.24949 0.453925) rotate(59.836) scale(6.16474 6.55762)">
<stop stop-color="white"/>
<stop offset="1" stop-color="white" stop-opacity="0"/>
</radialGradient>
<linearGradient id="paint6_linear_618_692" x1="22.5762" y1="15.2847" x2="30.5508" y2="9.32098" gradientUnits="userSpaceOnUse">
<stop offset="0.0677083" stop-color="#00A19F"/>
<stop offset="0.21875" stop-color="#66D0CE"/>
<stop offset="0.453125" stop-color="#00B0AD"/>
<stop offset="0.524381" stop-color="#00B0AD"/>
<stop offset="0.796875" stop-color="#00B0AD"/>
<stop offset="0.895833" stop-color="#00B0AD"/>
<stop offset="1" stop-color="#018D8B"/>
</linearGradient>
<radialGradient id="paint7_radial_618_692" cx="0" cy="0" r="1" gradientUnits="userSpaceOnUse" gradientTransform="translate(22.5762 12.1668) rotate(33.4962) scale(6.03614 6.80198)">
<stop stop-color="white"/>
<stop offset="1" stop-color="white" stop-opacity="0"/>
</radialGradient>
<linearGradient id="paint8_linear_618_692" x1="25.6488" y1="5.08107" x2="30.9493" y2="3.55647" gradientUnits="userSpaceOnUse">
<stop offset="0.0677083" stop-color="#00A19F"/>
<stop offset="0.21875" stop-color="#66D0CE"/>
<stop offset="0.453125" stop-color="#00B0AD"/>
<stop offset="0.524381" stop-color="#00B0AD"/>
<stop offset="0.796875" stop-color="#00B0AD"/>
<stop offset="0.895833" stop-color="#00B0AD"/>
<stop offset="1" stop-color="#018D8B"/>
</linearGradient>
<radialGradient id="paint9_radial_618_692" cx="0" cy="0" r="1" gradientUnits="userSpaceOnUse" gradientTransform="translate(25.6488 1.3395) rotate(59.836) scale(4.62355 4.91821)">
<stop stop-color="white"/>
<stop offset="1" stop-color="white" stop-opacity="0"/>
</radialGradient>
<radialGradient id="paint10_radial_618_692" cx="0" cy="0" r="1" gradientUnits="userSpaceOnUse" gradientTransform="translate(48.441 14.2767) rotate(5.77387) scale(138.153 40.3546)">
<stop stop-color="white" stop-opacity="0"/>
<stop offset="0.922504" stop-color="#EDEDED" stop-opacity="0.428464"/>
<stop offset="1" stop-color="#D6D6D6"/>
</radialGradient>
<linearGradient id="paint11_linear_618_692" x1="58.6433" y1="23.8969" x2="153.93" y2="60.4358" gradientUnits="userSpaceOnUse">
<stop stop-color="#0BA9A5"/>
<stop offset="1" stop-color="#0A7B7A"/>
</linearGradient>
<radialGradient id="paint12_radial_618_692" cx="0" cy="0" r="1" gradientUnits="userSpaceOnUse" gradientTransform="translate(48.441 14.2767) rotate(5.77387) scale(138.153 40.3546)">
<stop stop-color="white" stop-opacity="0"/>
<stop offset="0.922504" stop-color="#EDEDED" stop-opacity="0.428464"/>
<stop offset="1" stop-color="#D6D6D6"/>
</radialGradient>
<clipPath id="clip0_618_692">
<rect width="38" height="38" fill="white"/>
</clipPath>
</defs>
</svg>
