<svg width="18" height="19" viewBox="0 0 18 19" fill="none" xmlns="http://www.w3.org/2000/svg">
<path d="M1.0875 15.5087C0.74925 15.5087 0.46875 15.2282 0.46875 14.8899V5.81492C0.46875 2.17667 1.57425 1.07117 5.2125 1.07117H10.9875C14.6257 1.07117 15.7312 2.17667 15.7312 5.81492V14.0649C15.7312 14.1969 15.7312 14.3207 15.723 14.4527C15.6982 14.7909 15.393 15.0549 15.063 15.0302C14.7248 15.0054 14.4607 14.7084 14.4855 14.3702C14.4937 14.2712 14.4937 14.1639 14.4937 14.0649V5.81492C14.4937 2.86967 13.941 2.30867 10.9875 2.30867H5.2125C2.259 2.30867 1.70625 2.86967 1.70625 5.81492V14.8899C1.70625 15.2282 1.42575 15.5087 1.0875 15.5087Z" fill="#7A7A7A"/>
<path d="M12.225 18.8086H3.975C2.0445 18.8086 0.46875 17.2329 0.46875 15.3024V14.7661C0.46875 13.1244 1.80525 11.7961 3.43875 11.7961H15.1125C15.4507 11.7961 15.7312 12.0766 15.7312 12.4149V15.3024C15.7312 17.2329 14.1555 18.8086 12.225 18.8086ZM3.43875 13.0336C2.48175 13.0336 1.70625 13.8091 1.70625 14.7661V15.3024C1.70625 16.5564 2.721 17.5711 3.975 17.5711H12.225C13.479 17.5711 14.4937 16.5564 14.4937 15.3024V13.0336H3.43875Z" fill="#7A7A7A"/>
<path d="M11.4004 6.43367H4.80039C4.46214 6.43367 4.18164 6.15317 4.18164 5.81492C4.18164 5.47667 4.46214 5.19617 4.80039 5.19617H11.4004C11.7386 5.19617 12.0191 5.47667 12.0191 5.81492C12.0191 6.15317 11.7386 6.43367 11.4004 6.43367Z" fill="#7A7A7A"/>
<path d="M8.92539 9.32112H4.80039C4.46214 9.32112 4.18164 9.04062 4.18164 8.70237C4.18164 8.36412 4.46214 8.08362 4.80039 8.08362H8.92539C9.26364 8.08362 9.54414 8.36412 9.54414 8.70237C9.54414 9.04062 9.26364 9.32112 8.92539 9.32112Z" fill="#7A7A7A"/>
</svg>
