<svg width="20" height="19" viewBox="0 0 20 19" fill="none" xmlns="http://www.w3.org/2000/svg">
<path d="M13.3332 18.0104H6.66653C2.81653 18.0104 2.09986 16.3084 1.91653 14.6538L1.29153 8.31252C1.19986 7.48127 1.17486 6.25418 2.04153 5.33585C2.79153 4.54418 4.0332 4.16418 5.8332 4.16418H14.1665C15.9749 4.16418 17.2165 4.5521 17.9582 5.33585C18.8249 6.25418 18.7999 7.48127 18.7082 8.32043L18.0832 14.6459C17.8999 16.3084 17.1832 18.0104 13.3332 18.0104ZM5.8332 5.34377C4.42486 5.34377 3.4582 5.60502 2.96653 6.12752C2.5582 6.55502 2.42486 7.2121 2.5332 8.19377L3.1582 14.535C3.29986 15.7859 3.6582 16.8229 6.66653 16.8229H13.3332C16.3332 16.8229 16.6999 15.7859 16.8415 14.5271L17.4665 8.20168C17.5749 7.2121 17.4415 6.55502 17.0332 6.12752C16.5415 5.60502 15.5749 5.34377 14.1665 5.34377H5.8332Z" fill="#7A7A7A"/>
<path d="M13.3337 5.34379C12.992 5.34379 12.7087 5.07462 12.7087 4.75004V4.11671C12.7087 2.70754 12.7087 2.17712 10.667 2.17712H9.33366C7.29199 2.17712 7.29199 2.70754 7.29199 4.11671V4.75004C7.29199 5.07462 7.00866 5.34379 6.66699 5.34379C6.32533 5.34379 6.04199 5.07462 6.04199 4.75004V4.11671C6.04199 2.72337 6.04199 0.989624 9.33366 0.989624H10.667C13.9587 0.989624 13.9587 2.72337 13.9587 4.11671V4.75004C13.9587 5.07462 13.6753 5.34379 13.3337 5.34379Z" fill="#7A7A7A"/>
<path d="M9.99967 13.2604C7.70801 13.2604 7.70801 11.9146 7.70801 11.1071V10.2917C7.70801 9.17542 7.99134 8.90625 9.16634 8.90625H10.833C12.008 8.90625 12.2913 9.17542 12.2913 10.2917V11.0833C12.2913 11.9067 12.2913 13.2604 9.99967 13.2604ZM8.95801 10.0938C8.95801 10.1571 8.95801 10.2283 8.95801 10.2917V11.1071C8.95801 11.9225 8.95801 12.0729 9.99967 12.0729C11.0413 12.0729 11.0413 11.9463 11.0413 11.0992V10.2917C11.0413 10.2283 11.0413 10.1571 11.0413 10.0938C10.9747 10.0938 10.8997 10.0938 10.833 10.0938H9.16634C9.09967 10.0938 9.02467 10.0938 8.95801 10.0938Z" fill="#7A7A7A"/>
<path d="M11.6663 11.6929C11.3579 11.6929 11.0829 11.4712 11.0496 11.1704C11.0079 10.8458 11.2496 10.545 11.5913 10.5054C13.7913 10.2442 15.8996 9.45249 17.6746 8.2254C17.9496 8.02749 18.3413 8.09082 18.5496 8.35999C18.7496 8.62124 18.6913 8.99332 18.4079 9.19124C16.4579 10.5371 14.1579 11.4 11.7413 11.6929C11.7163 11.6929 11.6913 11.6929 11.6663 11.6929Z" fill="#7A7A7A"/>
<path d="M8.33296 11.7008C8.30796 11.7008 8.28296 11.7008 8.25796 11.7008C5.97463 11.4554 3.74963 10.6637 1.82463 9.41288C1.54129 9.2308 1.46629 8.85871 1.65796 8.58955C1.84963 8.32038 2.24129 8.24913 2.52463 8.43121C4.28296 9.57121 6.30796 10.2916 8.39129 10.5212C8.73296 10.5608 8.98296 10.8537 8.94129 11.1783C8.91629 11.4791 8.64963 11.7008 8.33296 11.7008Z" fill="#7A7A7A"/>
</svg>
