<svg width="19" height="20" viewBox="0 0 19 20" fill="none" xmlns="http://www.w3.org/2000/svg">
<path d="M9.33398 10.3449C8.90648 10.3449 8.47106 10.2657 8.13064 10.1153L3.45981 8.04115C2.27231 7.51073 2.09814 6.79823 2.09814 6.41032C2.09814 6.0224 2.27231 5.3099 3.45981 4.77948L8.13064 2.70532C8.81939 2.39657 9.85648 2.39657 10.5452 2.70532L15.224 4.77948C16.4036 5.30198 16.5856 6.0224 16.5856 6.41032C16.5856 6.79823 16.4115 7.51073 15.224 8.04115L10.5452 10.1153C10.1969 10.2737 9.76939 10.3449 9.33398 10.3449ZM9.33398 3.66323C9.06481 3.66323 8.80356 3.70282 8.61356 3.7899L3.94273 5.86407C3.45981 6.08573 3.28564 6.3074 3.28564 6.41032C3.28564 6.51323 3.45981 6.74282 3.93481 6.95657L8.60564 9.03073C8.98564 9.19698 9.67439 9.19698 10.0544 9.03073L14.7331 6.95657C15.2161 6.74282 15.3902 6.51323 15.3902 6.41032C15.3902 6.3074 15.2161 6.07782 14.7331 5.86407L10.0623 3.7899C9.87231 3.71073 9.60314 3.66323 9.33398 3.66323Z" fill="#7A7A7A"/>
<path d="M9.5 14.4696C9.19917 14.4696 8.89833 14.4062 8.61333 14.2796L3.23792 11.8887C2.4225 11.5325 1.78125 10.5429 1.78125 9.64832C1.78125 9.32373 2.05042 9.05457 2.375 9.05457C2.69958 9.05457 2.96875 9.32373 2.96875 9.64832C2.96875 10.0837 3.325 10.63 3.72083 10.8121L9.09625 13.2029C9.34958 13.3137 9.6425 13.3137 9.90375 13.2029L15.2792 10.8121C15.675 10.6379 16.0313 10.0837 16.0313 9.64832C16.0313 9.32373 16.3004 9.05457 16.625 9.05457C16.9496 9.05457 17.2188 9.32373 17.2188 9.64832C17.2188 10.5429 16.5775 11.5325 15.7621 11.8966L10.3867 14.2875C10.1017 14.4062 9.80083 14.4696 9.5 14.4696Z" fill="#7A7A7A"/>
<path d="M9.5 18.4278C9.19917 18.4278 8.89833 18.3645 8.61333 18.2378L3.23792 15.847C2.35125 15.4511 1.78125 14.5724 1.78125 13.5986C1.78125 13.274 2.05042 13.0049 2.375 13.0049C2.69958 13.0049 2.96875 13.282 2.96875 13.6065C2.96875 14.1053 3.26167 14.5645 3.72083 14.7703L9.09625 17.1611C9.34958 17.272 9.6425 17.272 9.90375 17.1611L15.2792 14.7703C15.7383 14.5645 16.0313 14.1132 16.0313 13.6065C16.0313 13.282 16.3004 13.0128 16.625 13.0128C16.9496 13.0128 17.2188 13.282 17.2188 13.6065C17.2188 14.5803 16.6488 15.4591 15.7621 15.8549L10.3867 18.2457C10.1017 18.3645 9.80083 18.4278 9.5 18.4278Z" fill="#7A7A7A"/>
</svg>
