<svg width="21" height="25" viewBox="0 0 21 25" fill="none" xmlns="http://www.w3.org/2000/svg">
<path d="M17.7506 24.4434H3.25065C1.91596 24.4434 0.833984 23.3614 0.833984 22.0267V2.69335C0.833984 1.35867 1.91596 0.276688 3.25065 0.276688H11.709C11.7198 0.275284 11.7308 0.275284 11.7416 0.276688H11.7489C11.7603 0.280262 11.772 0.282691 11.7839 0.283938C11.8905 0.290769 11.9957 0.311486 12.0969 0.345563H12.115H12.1331H12.1476C12.1699 0.361181 12.1909 0.378556 12.2104 0.397521C12.3421 0.456033 12.462 0.537911 12.5645 0.639188L19.8145 7.88919C19.9158 7.99164 19.9976 8.11159 20.0561 8.24323C20.067 8.26981 20.0755 8.29519 20.0839 8.32298L20.096 8.35681C20.1298 8.45758 20.1497 8.56245 20.1552 8.66856C20.1563 8.6806 20.1591 8.69241 20.1637 8.7036V8.71085C20.1657 8.71878 20.1669 8.72687 20.1673 8.73502V22.0267C20.1673 22.6676 19.9127 23.2823 19.4595 23.7355C19.0063 24.1887 18.3916 24.4434 17.7506 24.4434ZM13.4296 14.7767V20.8184H14.5655V18.3534H16.3297V17.3408H14.5655V15.7929H16.5423V14.7767H13.4296ZM8.95882 14.7767V20.8184H10.4161C11.0274 20.8484 11.6194 20.5995 12.0256 20.1417C12.4423 19.6099 12.6511 18.9445 12.6128 18.27V17.2912C12.6408 16.6238 12.4262 15.9688 12.0087 15.4473C11.6155 14.9998 11.0415 14.7534 10.4463 14.7767H8.95882ZM4.45898 14.7767V20.8184H5.59482V18.6929H6.35123C6.85634 18.7209 7.34971 18.5339 7.7094 18.1781C8.05266 17.7944 8.23069 17.2907 8.20482 16.7765C8.22724 16.2499 8.04936 15.7344 7.70698 15.3337C7.36831 14.9582 6.87939 14.7538 6.37419 14.7767H4.45898ZM11.709 2.69335V8.73502H17.7506L11.709 2.69335ZM10.4354 19.8058H10.0947V15.7929H10.5079C10.8013 15.7756 11.0835 15.9085 11.2571 16.1457C11.4342 16.5122 11.5101 16.9194 11.477 17.3251V18.3751C11.5035 18.7615 11.4197 19.1474 11.2353 19.488C11.0373 19.7192 10.7381 19.838 10.4354 19.8058ZM6.37419 17.6767H5.59361V15.7929H6.38507C6.58265 15.795 6.76525 15.8987 6.8684 16.0672C6.99917 16.283 7.0623 16.533 7.04965 16.7849C7.0648 17.0199 7.0024 17.2534 6.87203 17.4495C6.75185 17.6004 6.56688 17.6848 6.37419 17.6767Z" fill="#00B0AD"/>
</svg>
