<svg width="12" height="13" viewBox="0 0 12 13" fill="none" xmlns="http://www.w3.org/2000/svg">
<path d="M6.52941 1.03795C6.52941 0.74085 6.29238 0.5 6 0.5C5.70761 0.5 5.47059 0.74085 5.47059 1.03795V3.90704C5.47059 4.20414 5.70761 4.44499 6 4.44499C6.29238 4.44499 6.52941 4.20414 6.52941 3.90704V1.03795Z" fill="#697A8D"/>
<path d="M10.2426 2.0921C10.0359 1.88202 9.70068 1.88202 9.49394 2.0921C9.28719 2.30219 9.28719 2.6428 9.49394 2.85289C10.185 3.55507 10.6556 4.44971 10.8462 5.42367C11.0369 6.39762 10.939 7.40716 10.5651 8.32461C10.1911 9.24206 9.55774 10.0262 8.74517 10.5779C7.9326 11.1296 6.97727 11.4241 6 11.4241C5.02273 11.4241 4.06741 11.1296 3.25483 10.5779C2.44226 10.0262 1.80894 9.24206 1.43495 8.32462C1.06097 7.40717 0.963113 6.39763 1.15377 5.42367C1.34442 4.44972 1.81502 3.55508 2.50606 2.85289C2.7128 2.64281 2.7128 2.30219 2.50606 2.09211C2.29931 1.88203 1.9641 1.88203 1.75735 2.09211C0.918241 2.94477 0.346799 4.03111 0.115289 5.21378C-0.11622 6.39644 0.00260126 7.6223 0.456728 8.73635C0.910855 9.85039 1.67989 10.8026 2.66659 11.4725C3.65328 12.1424 4.81332 12.5 6 12.5C7.18669 12.5 8.34673 12.1424 9.33342 11.4725C10.3201 10.8026 11.0892 9.85038 11.5433 8.73634C11.9974 7.62229 12.1162 6.39643 11.8847 5.21377C11.6532 4.0311 11.0818 2.94476 10.2426 2.0921Z" fill="#697A8D"/>
</svg>
