<svg width="12" height="13" viewBox="0 0 12 13" fill="none" xmlns="http://www.w3.org/2000/svg">
<path d="M5.625 0.560059C5.19531 0.560059 4.79004 0.643066 4.40918 0.809082C4.02832 0.975098 3.69629 1.19971 3.41309 1.48291C3.12988 1.76611 2.90527 2.09814 2.73926 2.479C2.58301 2.8501 2.50488 3.25537 2.50488 3.69482C2.50488 4.12451 2.58301 4.52979 2.73926 4.91064C2.90527 5.2915 3.12988 5.62109 3.41309 5.89941C3.69629 6.17773 4.02832 6.3999 4.40918 6.56592C4.79004 6.73193 5.19531 6.81494 5.625 6.81494C6.05469 6.81494 6.45996 6.73193 6.84082 6.56592C7.22168 6.3999 7.55371 6.17773 7.83691 5.89941C8.12012 5.62109 8.34473 5.2915 8.51074 4.91064C8.66699 4.52979 8.74512 4.12451 8.74512 3.69482C8.74512 3.25537 8.66699 2.8501 8.51074 2.479C8.34473 2.09814 8.12012 1.76611 7.83691 1.48291C7.55371 1.19971 7.22168 0.975098 6.84082 0.809082C6.45996 0.643066 6.05469 0.560059 5.625 0.560059ZM5.625 5.56982C5.10742 5.56982 4.66553 5.38672 4.29932 5.02051C3.93311 4.6543 3.75 4.2124 3.75 3.69482C3.75 3.17725 3.93311 2.73535 4.29932 2.36914C4.66553 2.00293 5.10742 1.81982 5.625 1.81982C6.14258 1.81982 6.58447 2.00293 6.95068 2.36914C7.31689 2.73535 7.5 3.17725 7.5 3.69482C7.5 4.2124 7.31689 4.6543 6.95068 5.02051C6.58447 5.38672 6.14258 5.56982 5.625 5.56982ZM11.25 12.4399V11.8101C11.25 11.2046 11.1377 10.6382 10.9131 10.1108C10.6787 9.5835 10.3638 9.12207 9.96826 8.72656C9.57275 8.33105 9.11133 8.01611 8.58398 7.78174C8.04688 7.55713 7.47559 7.44482 6.87012 7.44482H4.37988C3.77441 7.44482 3.20312 7.55713 2.66602 7.78174C2.13867 8.01611 1.67725 8.33105 1.28174 8.72656C0.88623 9.12207 0.571289 9.5835 0.336914 10.1108C0.112305 10.6382 0 11.2046 0 11.8101V12.4399H1.24512V11.8101C1.24512 11.3804 1.32812 10.9751 1.49414 10.5942C1.66016 10.2134 1.88477 9.88379 2.16797 9.60547C2.45117 9.32715 2.7832 9.10498 3.16406 8.93896C3.53516 8.77295 3.94043 8.68994 4.37988 8.68994H6.87012C7.30957 8.68994 7.71484 8.77295 8.08594 8.93896C8.4668 9.10498 8.79883 9.32715 9.08203 9.60547C9.36523 9.88379 9.58984 10.2134 9.75586 10.5942C9.92188 10.9751 10.0049 11.3804 10.0049 11.8101V12.4399H11.25Z" fill="#697A8D"/>
</svg>
